<svg xmlns="http://www.w3.org/2000/svg" width="810" viewBox="0 0 810 810" height="810" version="1.0"><path fill="#FFF" d="M-81 -81H891V891H-81z"/><path fill="#FFF" d="M-81 -81H891V891H-81z"/><path fill="#FFF" d="M-81 -81H891V891H-81z"/><path fill="#DBDBDB" d="M 20.898438 809.964844 L 801.859375 809.964844 C 817.835938 809.964844 830.785156 797.011719 830.785156 781.035156 L 830.785156 28.894531 C 830.785156 12.917969 817.835938 -0.0351562 801.859375 -0.0351562 L 20.898438 -0.0351562 C 4.925781 -0.0351562 -8.027344 12.917969 -8.027344 28.894531 L -8.027344 781.035156 C -8.027344 797.011719 4.925781 809.964844 20.898438 809.964844"/><path fill="#3CBCAA" d="M 830.785156 28.894531 L 830.785156 115.679688 L -8.027344 115.679688 L -8.027344 28.894531 C -8.027344 12.910156 4.917969 -0.0351562 20.898438 -0.0351562 L 801.859375 -0.0351562 C 817.839844 -0.0351562 830.785156 12.910156 830.785156 28.894531"/><path fill="#DBDBDB" d="M 179.984375 57.820312 C 179.984375 65.808594 173.507812 72.285156 165.523438 72.285156 C 157.535156 72.285156 151.058594 65.808594 151.058594 57.820312 C 151.058594 49.835938 157.535156 43.359375 165.523438 43.359375 C 173.507812 43.359375 179.984375 49.835938 179.984375 57.820312"/><path fill="#DBDBDB" d="M 122.132812 57.820312 C 122.132812 65.808594 115.660156 72.285156 107.671875 72.285156 C 99.6875 72.285156 93.210938 65.808594 93.210938 57.820312 C 93.210938 49.835938 99.6875 43.359375 107.671875 43.359375 C 115.660156 43.359375 122.132812 49.835938 122.132812 57.820312"/><path fill="#DBDBDB" d="M 64.285156 57.820312 C 64.285156 65.808594 57.808594 72.285156 49.824219 72.285156 C 41.835938 72.285156 35.359375 65.808594 35.359375 57.820312 C 35.359375 49.835938 41.835938 43.359375 49.824219 43.359375 C 57.808594 43.359375 64.285156 49.835938 64.285156 57.820312"/><path fill="#3CBCAA" d="M 483.691406 217.867188 L 339.070312 217.867188 C 331.082031 217.867188 324.605469 211.390625 324.605469 203.402344 C 324.605469 195.417969 331.082031 188.941406 339.070312 188.941406 L 483.691406 188.941406 C 491.679688 188.941406 498.152344 195.417969 498.152344 203.402344 C 498.152344 211.390625 491.679688 217.867188 483.691406 217.867188"/><path fill="#FFF" d="M 584.925781 319.117188 L 237.832031 319.117188 L 237.832031 261.261719 L 584.925781 261.261719 L 584.925781 319.117188"/><path fill="#FFF" d="M 584.925781 434.832031 L 237.832031 434.832031 L 237.832031 376.976562 L 584.925781 376.976562 L 584.925781 434.832031"/><path fill="#FFF" d="M 584.925781 608.402344 L 237.832031 608.402344 L 237.832031 492.691406 L 584.925781 492.691406 L 584.925781 608.402344"/><path fill="#3CBCAA" d="M 440.304688 724.117188 L 382.457031 724.117188 C 366.480469 724.117188 353.53125 711.164062 353.53125 695.191406 C 353.53125 679.214844 366.480469 666.261719 382.457031 666.261719 L 440.304688 666.261719 C 456.277344 666.261719 469.230469 679.214844 469.230469 695.191406 C 469.230469 711.164062 456.277344 724.117188 440.304688 724.117188"/></svg>