<svg xmlns="http://www.w3.org/2000/svg" width="810" viewBox="0 0 810 810" height="810" version="1.0"><defs><clipPath id="a"><path d="M 19 64.292969 L 791.429688 64.292969 L 791.429688 746.042969 L 19 746.042969 Z M 19 64.292969"/></clipPath></defs><path fill="#FFF" d="M-81 -81H891V891H-81z"/><path fill="#FFF" d="M-81 -81H891V891H-81z"/><path fill="#D9D9D9" d="M-81 -81H891V891H-81z"/><path fill="#3CBCAA" d="M 612.660156 398.738281 L 610.984375 398.738281 C 600.691406 398.699219 590.484375 399.640625 580.371094 401.566406 C 568.113281 403.835938 556.261719 407.449219 544.820312 412.398438 C 533.378906 417.347656 522.632812 423.515625 512.585938 430.894531 L 512.457031 430.894531 C 498.339844 441.128906 486.160156 453.308594 475.925781 467.425781 L 475.925781 467.554688 C 468.546875 477.605469 462.382812 488.347656 457.429688 499.792969 C 452.480469 511.234375 448.871094 523.085938 446.597656 535.34375 C 446.339844 537.015625 445.957031 538.558594 445.699219 540.234375 C 444.6875 546.671875 444.058594 553.152344 443.8125 559.667969 C 443.566406 566.179688 443.703125 572.6875 444.222656 579.1875 C 444.742188 585.6875 445.640625 592.132812 446.921875 598.523438 C 448.199219 604.917969 449.851562 611.214844 451.871094 617.410156 C 452.589844 619.628906 453.347656 621.832031 454.15625 624.019531 C 454.964844 626.207031 455.816406 628.375 456.714844 630.527344 C 457.613281 632.679688 458.554688 634.808594 459.542969 636.921875 C 460.53125 639.035156 461.558594 641.125 462.636719 643.191406 C 463.710938 645.261719 464.828125 647.304688 465.988281 649.328125 C 467.148438 651.351562 468.347656 653.347656 469.59375 655.320312 C 470.835938 657.289062 472.121094 659.234375 473.445312 661.152344 C 474.769531 663.070312 476.136719 664.960938 477.539062 666.820312 C 478.941406 668.683594 480.386719 670.511719 481.867188 672.3125 C 483.347656 674.113281 484.863281 675.882812 486.417969 677.621094 C 487.972656 679.359375 489.5625 681.0625 491.1875 682.730469 C 492.816406 684.402344 494.476562 686.039062 496.167969 687.640625 C 497.863281 689.242188 499.589844 690.804688 501.351562 692.335938 C 503.109375 693.863281 504.898438 695.355469 506.722656 696.808594 C 508.542969 698.261719 510.394531 699.679688 512.277344 701.054688 C 514.160156 702.433594 516.066406 703.769531 518.003906 705.066406 C 519.941406 706.363281 521.90625 707.617188 523.894531 708.832031 C 525.882812 710.046875 527.898438 711.21875 529.9375 712.351562 C 531.976562 713.480469 534.039062 714.566406 536.121094 715.613281 C 538.207031 716.65625 540.308594 717.65625 542.4375 718.613281 C 544.5625 719.570312 546.707031 720.480469 548.871094 721.347656 C 551.035156 722.214844 553.214844 723.035156 555.414062 723.808594 C 557.613281 724.585938 559.828125 725.3125 562.054688 725.996094 C 564.285156 726.679688 566.527344 727.316406 568.78125 727.902344 C 571.039062 728.492188 573.304688 729.035156 575.582031 729.527344 C 577.859375 730.023438 580.148438 730.46875 582.445312 730.867188 C 584.742188 731.265625 587.046875 731.617188 589.359375 731.917969 C 591.667969 732.21875 593.984375 732.472656 596.308594 732.679688 C 598.628906 732.882812 600.957031 733.039062 603.285156 733.148438 C 605.613281 733.257812 607.941406 733.316406 610.273438 733.324219 C 612.605469 733.335938 614.933594 733.296875 617.265625 733.210938 C 619.59375 733.125 621.921875 732.988281 624.242188 732.804688 C 626.566406 732.621094 628.886719 732.386719 631.199219 732.105469 C 633.515625 731.824219 635.820312 731.496094 638.121094 731.117188 C 640.421875 730.738281 642.714844 730.3125 644.996094 729.839844 C 647.277344 729.367188 649.550781 728.84375 651.8125 728.277344 C 654.070312 727.707031 656.320312 727.09375 658.554688 726.429688 C 660.789062 725.765625 663.007812 725.058594 665.214844 724.304688 C 667.417969 723.546875 669.609375 722.746094 671.78125 721.898438 C 673.953125 721.050781 676.105469 720.160156 678.238281 719.222656 C 680.375 718.285156 682.488281 717.304688 684.582031 716.28125 C 686.675781 715.253906 688.746094 714.183594 690.792969 713.074219 C 692.84375 711.960938 694.867188 710.808594 696.867188 709.609375 C 698.867188 708.414062 700.84375 707.175781 702.792969 705.894531 C 704.742188 704.617188 706.660156 703.296875 708.554688 701.9375 C 710.449219 700.578125 712.3125 699.179688 714.148438 697.742188 C 715.984375 696.304688 717.789062 694.828125 719.5625 693.316406 C 721.335938 691.800781 723.074219 690.253906 724.785156 688.667969 C 726.492188 687.082031 728.167969 685.460938 729.808594 683.804688 C 731.449219 682.148438 733.054688 680.457031 734.625 678.734375 C 736.195312 677.011719 737.726562 675.257812 739.222656 673.46875 C 740.71875 671.683594 742.179688 669.867188 743.597656 668.015625 C 745.019531 666.167969 746.402344 664.292969 747.742188 662.386719 C 749.085938 660.480469 750.386719 658.546875 751.648438 656.585938 C 752.910156 654.625 754.128906 652.640625 755.308594 650.628906 C 756.488281 648.617188 757.621094 646.582031 758.714844 644.523438 C 759.808594 642.464844 760.859375 640.382812 761.863281 638.28125 C 762.871094 636.175781 763.832031 634.054688 764.75 631.910156 C 765.667969 629.769531 766.539062 627.605469 767.367188 625.425781 C 768.191406 623.25 768.972656 621.050781 769.710938 618.839844 C 770.445312 616.628906 771.132812 614.402344 771.773438 612.160156 C 772.417969 609.917969 773.011719 607.664062 773.558594 605.398438 C 774.105469 603.132812 774.605469 600.859375 775.058594 598.570312 C 775.511719 596.285156 775.917969 593.988281 776.273438 591.683594 C 777.570312 583.160156 778.214844 574.582031 778.203125 565.957031 C 778.203125 563.238281 778.136719 560.523438 778.003906 557.804688 C 777.871094 555.089844 777.671875 552.378906 777.410156 549.671875 C 777.144531 546.964844 776.8125 544.265625 776.417969 541.578125 C 776.019531 538.886719 775.558594 536.207031 775.03125 533.539062 C 774.503906 530.871094 773.914062 528.21875 773.257812 525.578125 C 772.601562 522.941406 771.878906 520.320312 771.09375 517.714844 C 770.3125 515.113281 769.464844 512.527344 768.554688 509.964844 C 767.644531 507.402344 766.671875 504.863281 765.636719 502.351562 C 764.601562 499.835938 763.507812 497.347656 762.351562 494.886719 C 761.195312 492.421875 759.980469 489.992188 758.707031 487.589844 C 757.433594 485.1875 756.101562 482.816406 754.710938 480.480469 C 753.320312 478.140625 751.875 475.839844 750.371094 473.574219 C 748.871094 471.308594 747.3125 469.078125 745.703125 466.886719 C 744.089844 464.695312 742.429688 462.546875 740.710938 460.4375 C 738.996094 458.328125 737.230469 456.261719 735.414062 454.238281 C 733.597656 452.214844 731.730469 450.234375 729.820312 448.300781 C 727.90625 446.371094 725.945312 444.484375 723.941406 442.648438 C 721.9375 440.8125 719.886719 439.023438 717.796875 437.289062 C 715.703125 435.550781 713.570312 433.867188 711.394531 432.234375 C 709.222656 430.601562 707.007812 429.019531 704.757812 427.496094 C 702.503906 425.972656 700.21875 424.5 697.894531 423.089844 C 695.570312 421.675781 693.214844 420.320312 690.824219 419.019531 C 688.4375 417.722656 686.015625 416.484375 683.566406 415.300781 C 681.117188 414.121094 678.640625 413.003906 676.136719 411.941406 C 673.632812 410.882812 671.101562 409.886719 668.550781 408.949219 C 665.996094 408.011719 663.421875 407.140625 660.828125 406.328125 C 658.230469 405.519531 655.617188 404.773438 652.984375 404.089844 C 650.351562 403.40625 647.707031 402.789062 645.042969 402.234375 C 642.382812 401.679688 639.707031 401.191406 637.019531 400.769531 C 634.335938 400.34375 631.640625 399.988281 628.9375 399.695312 C 626.234375 399.402344 623.523438 399.175781 620.808594 399.015625 C 618.09375 398.859375 615.378906 398.765625 612.660156 398.738281 Z M 610.984375 668.863281 L 610.984375 565.957031 Z M 610.984375 668.863281"/><path fill="#D9D9D9" d="M 32.15625 591.683594 L 445.699219 591.683594 C 443.113281 574.535156 443.113281 557.382812 445.699219 540.234375 L 199.375 540.234375 L 315.140625 360.148438 L 372.25 448.902344 L 508.082031 231.515625 L 612.660156 398.738281 C 615.378906 398.765625 618.09375 398.859375 620.808594 399.015625 C 623.523438 399.175781 626.230469 399.402344 628.933594 399.695312 C 631.640625 399.984375 634.332031 400.34375 637.019531 400.765625 C 639.707031 401.191406 642.378906 401.679688 645.042969 402.230469 C 647.703125 402.785156 650.351562 403.40625 652.984375 404.085938 C 655.613281 404.769531 658.230469 405.515625 660.824219 406.328125 C 663.421875 407.136719 665.996094 408.011719 668.546875 408.945312 C 671.101562 409.882812 673.628906 410.882812 676.132812 411.941406 C 678.636719 413 681.113281 414.121094 683.566406 415.300781 C 686.015625 416.480469 688.433594 417.71875 690.824219 419.019531 C 693.210938 420.316406 695.570312 421.671875 697.890625 423.085938 C 700.214844 424.5 702.5 425.96875 704.753906 427.492188 C 707.003906 429.015625 709.21875 430.597656 711.390625 432.230469 C 713.566406 433.863281 715.699219 435.546875 717.792969 437.285156 C 719.882812 439.019531 721.933594 440.808594 723.9375 442.644531 C 725.941406 444.480469 727.902344 446.367188 729.816406 448.300781 C 731.730469 450.230469 733.59375 452.210938 735.410156 454.234375 C 737.226562 456.257812 738.992188 458.324219 740.710938 460.433594 C 742.425781 462.542969 744.089844 464.691406 745.699219 466.882812 C 747.308594 469.074219 748.867188 471.304688 750.367188 473.570312 C 751.871094 475.835938 753.316406 478.140625 754.707031 480.476562 C 756.097656 482.8125 757.429688 485.183594 758.703125 487.585938 C 759.976562 489.988281 761.191406 492.421875 762.347656 494.882812 C 763.503906 497.34375 764.597656 499.832031 765.632812 502.347656 C 766.667969 504.863281 767.640625 507.402344 768.550781 509.964844 C 769.460938 512.527344 770.308594 515.109375 771.09375 517.714844 C 771.878906 520.316406 772.597656 522.9375 773.253906 525.578125 C 773.910156 528.214844 774.503906 530.871094 775.03125 533.539062 C 775.558594 536.207031 776.019531 538.886719 776.417969 541.574219 C 776.8125 544.265625 777.144531 546.964844 777.40625 549.671875 C 777.671875 552.378906 777.871094 555.089844 778.003906 557.804688 C 778.136719 560.519531 778.203125 563.238281 778.203125 565.957031 L 778.203125 77.15625 L 32.15625 77.15625 Z M 212.238281 334.421875 Z M 250.828125 298.402344 L 263.6875 320.683594 Z M 289.414062 231.515625 Z M 301.351562 180.0625 L 279.125 192.925781 Z M 301.351562 282.96875 L 279.125 270.105469 Z M 263.6875 142.398438 L 250.828125 164.625 Z M 212.238281 128.609375 Z M 212.238281 192.925781 C 213.5 192.925781 214.761719 192.988281 216.019531 193.113281 C 217.277344 193.234375 218.527344 193.421875 219.765625 193.667969 C 221.003906 193.914062 222.230469 194.21875 223.441406 194.585938 C 224.648438 194.953125 225.835938 195.378906 227.003906 195.863281 C 228.171875 196.347656 229.3125 196.886719 230.429688 197.484375 C 231.542969 198.078125 232.625 198.726562 233.675781 199.429688 C 234.726562 200.132812 235.742188 200.882812 236.71875 201.683594 C 237.695312 202.488281 238.628906 203.335938 239.523438 204.226562 C 240.417969 205.121094 241.265625 206.058594 242.066406 207.035156 C 242.867188 208.011719 243.621094 209.023438 244.324219 210.078125 C 245.023438 211.128906 245.675781 212.210938 246.269531 213.324219 C 246.867188 214.4375 247.40625 215.582031 247.890625 216.746094 C 248.371094 217.914062 248.796875 219.105469 249.164062 220.3125 C 249.53125 221.523438 249.839844 222.746094 250.085938 223.988281 C 250.332031 225.226562 250.515625 226.476562 250.640625 227.734375 C 250.765625 228.992188 250.828125 230.25 250.828125 231.515625 C 250.828125 232.78125 250.765625 234.039062 250.640625 235.296875 C 250.515625 236.554688 250.332031 237.804688 250.085938 239.042969 C 249.839844 240.285156 249.53125 241.507812 249.164062 242.71875 C 248.796875 243.925781 248.371094 245.117188 247.890625 246.28125 C 247.40625 247.449219 246.867188 248.59375 246.269531 249.707031 C 245.675781 250.820312 245.023438 251.902344 244.324219 252.953125 C 243.621094 254.003906 242.867188 255.019531 242.066406 255.996094 C 241.265625 256.972656 240.417969 257.910156 239.523438 258.800781 C 238.628906 259.695312 237.695312 260.542969 236.71875 261.34375 C 235.742188 262.148438 234.726562 262.898438 233.675781 263.601562 C 232.625 264.304688 231.542969 264.953125 230.429688 265.546875 C 229.3125 266.144531 228.171875 266.683594 227.003906 267.167969 C 225.835938 267.652344 224.648438 268.078125 223.441406 268.445312 C 222.230469 268.808594 221.003906 269.117188 219.765625 269.363281 C 218.527344 269.609375 217.277344 269.796875 216.019531 269.917969 C 214.761719 270.042969 213.5 270.105469 212.238281 270.105469 C 210.972656 270.105469 209.714844 270.042969 208.457031 269.917969 C 207.199219 269.796875 205.949219 269.609375 204.710938 269.363281 C 203.46875 269.117188 202.246094 268.808594 201.035156 268.445312 C 199.828125 268.078125 198.636719 267.652344 197.46875 267.167969 C 196.304688 266.683594 195.160156 266.144531 194.046875 265.546875 C 192.933594 264.953125 191.851562 264.304688 190.800781 263.601562 C 189.75 262.898438 188.734375 262.148438 187.757812 261.34375 C 186.78125 260.542969 185.84375 259.695312 184.953125 258.800781 C 184.058594 257.910156 183.210938 256.972656 182.410156 255.996094 C 181.605469 255.019531 180.855469 254.003906 180.152344 252.953125 C 179.449219 251.902344 178.800781 250.820312 178.207031 249.707031 C 177.609375 248.59375 177.070312 247.449219 176.585938 246.28125 C 176.101562 245.117188 175.679688 243.925781 175.3125 242.71875 C 174.945312 241.507812 174.636719 240.285156 174.390625 239.042969 C 174.144531 237.804688 173.960938 236.554688 173.835938 235.296875 C 173.710938 234.039062 173.648438 232.78125 173.648438 231.515625 C 173.648438 230.25 173.710938 228.992188 173.835938 227.734375 C 173.960938 226.476562 174.144531 225.226562 174.390625 223.988281 C 174.636719 222.746094 174.945312 221.523438 175.3125 220.3125 C 175.679688 219.105469 176.101562 217.914062 176.585938 216.746094 C 177.070312 215.582031 177.609375 214.4375 178.207031 213.324219 C 178.800781 212.210938 179.449219 211.128906 180.152344 210.078125 C 180.855469 209.023438 181.605469 208.011719 182.410156 207.035156 C 183.210938 206.058594 184.058594 205.121094 184.953125 204.226562 C 185.84375 203.335938 186.78125 202.488281 187.757812 201.683594 C 188.734375 200.882812 189.75 200.132812 190.800781 199.429688 C 191.851562 198.726562 192.933594 198.078125 194.046875 197.484375 C 195.160156 196.886719 196.304688 196.347656 197.472656 195.863281 C 198.636719 195.378906 199.828125 194.953125 201.035156 194.585938 C 202.246094 194.21875 203.46875 193.914062 204.710938 193.667969 C 205.949219 193.421875 207.199219 193.234375 208.457031 193.113281 C 209.714844 192.988281 210.972656 192.925781 212.238281 192.925781 Z M 173.648438 164.625 L 160.785156 142.347656 Z M 173.648438 298.402344 L 160.785156 320.683594 Z M 123.125 282.96875 L 145.351562 270.105469 Z M 145.351562 192.925781 L 123.074219 180.0625 Z M 135.0625 231.515625 Z M 109.335938 540.234375 Z M 109.335938 540.234375"/><path fill="#D9D9D9" d="M 778.203125 591.683594 L 778.203125 565.957031 C 778.214844 574.582031 777.570312 583.160156 776.273438 591.683594 Z M 778.203125 591.683594"/><path fill="#1E3048" d="M 315.140625 360.148438 L 199.375 540.234375 L 315.140625 540.234375 L 372.25 448.902344 Z M 315.140625 360.148438"/><path fill="#1E3048" d="M 475.925781 467.554688 L 475.925781 467.425781 C 486.160156 453.308594 498.339844 441.128906 512.457031 430.894531 L 512.585938 430.894531 C 522.632812 423.515625 533.378906 417.347656 544.820312 412.398438 C 556.261719 407.449219 568.113281 403.835938 580.371094 401.566406 C 590.484375 399.640625 600.691406 398.699219 610.984375 398.738281 L 612.660156 398.738281 L 508.082031 231.515625 L 372.25 448.902344 L 315.140625 540.234375 L 445.699219 540.234375 C 445.957031 538.558594 446.339844 537.015625 446.597656 535.34375 C 448.871094 523.085938 452.480469 511.234375 457.429688 499.792969 C 462.382812 488.347656 468.546875 477.605469 475.925781 467.554688 Z M 475.925781 467.554688"/><path fill="#FFDF35" d="M 250.828125 231.515625 C 250.828125 232.78125 250.765625 234.039062 250.640625 235.296875 C 250.515625 236.554688 250.332031 237.804688 250.085938 239.042969 C 249.839844 240.285156 249.53125 241.507812 249.164062 242.71875 C 248.796875 243.925781 248.371094 245.117188 247.890625 246.28125 C 247.40625 247.449219 246.867188 248.59375 246.269531 249.707031 C 245.675781 250.820312 245.023438 251.902344 244.324219 252.953125 C 243.621094 254.003906 242.867188 255.019531 242.066406 255.996094 C 241.265625 256.972656 240.417969 257.910156 239.523438 258.800781 C 238.628906 259.695312 237.695312 260.542969 236.71875 261.34375 C 235.742188 262.148438 234.726562 262.898438 233.675781 263.601562 C 232.625 264.304688 231.542969 264.953125 230.429688 265.546875 C 229.3125 266.144531 228.171875 266.683594 227.003906 267.167969 C 225.835938 267.652344 224.648438 268.078125 223.441406 268.445312 C 222.230469 268.808594 221.003906 269.117188 219.765625 269.363281 C 218.527344 269.609375 217.277344 269.796875 216.019531 269.917969 C 214.761719 270.042969 213.5 270.105469 212.238281 270.105469 C 210.972656 270.105469 209.714844 270.042969 208.457031 269.917969 C 207.199219 269.796875 205.949219 269.609375 204.710938 269.363281 C 203.46875 269.117188 202.246094 268.808594 201.035156 268.445312 C 199.828125 268.078125 198.636719 267.652344 197.46875 267.167969 C 196.304688 266.683594 195.160156 266.144531 194.046875 265.546875 C 192.933594 264.953125 191.851562 264.304688 190.800781 263.601562 C 189.75 262.898438 188.734375 262.148438 187.757812 261.34375 C 186.78125 260.542969 185.84375 259.695312 184.953125 258.800781 C 184.058594 257.910156 183.210938 256.972656 182.410156 255.996094 C 181.605469 255.019531 180.855469 254.003906 180.152344 252.953125 C 179.449219 251.902344 178.800781 250.820312 178.207031 249.707031 C 177.609375 248.59375 177.070312 247.449219 176.585938 246.28125 C 176.101562 245.117188 175.679688 243.925781 175.3125 242.71875 C 174.945312 241.507812 174.636719 240.285156 174.390625 239.042969 C 174.144531 237.804688 173.960938 236.554688 173.835938 235.296875 C 173.710938 234.039062 173.648438 232.78125 173.648438 231.515625 C 173.648438 230.25 173.710938 228.992188 173.835938 227.734375 C 173.960938 226.476562 174.144531 225.226562 174.390625 223.988281 C 174.636719 222.746094 174.945312 221.523438 175.3125 220.3125 C 175.679688 219.105469 176.101562 217.914062 176.585938 216.746094 C 177.070312 215.582031 177.609375 214.4375 178.207031 213.324219 C 178.800781 212.210938 179.449219 211.128906 180.152344 210.078125 C 180.855469 209.023438 181.605469 208.011719 182.410156 207.035156 C 183.210938 206.058594 184.058594 205.121094 184.953125 204.226562 C 185.84375 203.335938 186.78125 202.488281 187.757812 201.683594 C 188.734375 200.882812 189.75 200.132812 190.800781 199.429688 C 191.851562 198.726562 192.933594 198.078125 194.046875 197.484375 C 195.160156 196.886719 196.304688 196.347656 197.472656 195.863281 C 198.636719 195.378906 199.828125 194.953125 201.035156 194.585938 C 202.246094 194.21875 203.46875 193.914062 204.710938 193.667969 C 205.949219 193.421875 207.199219 193.234375 208.457031 193.113281 C 209.714844 192.988281 210.972656 192.925781 212.238281 192.925781 C 213.5 192.925781 214.761719 192.988281 216.019531 193.113281 C 217.277344 193.234375 218.527344 193.421875 219.765625 193.667969 C 221.003906 193.914062 222.230469 194.21875 223.441406 194.585938 C 224.648438 194.953125 225.835938 195.378906 227.003906 195.863281 C 228.171875 196.347656 229.3125 196.886719 230.429688 197.484375 C 231.542969 198.078125 232.625 198.726562 233.675781 199.429688 C 234.726562 200.132812 235.742188 200.882812 236.71875 201.683594 C 237.695312 202.488281 238.628906 203.335938 239.523438 204.226562 C 240.417969 205.121094 241.265625 206.058594 242.066406 207.035156 C 242.867188 208.011719 243.621094 209.023438 244.324219 210.078125 C 245.023438 211.128906 245.675781 212.210938 246.269531 213.324219 C 246.867188 214.4375 247.40625 215.582031 247.890625 216.746094 C 248.371094 217.914062 248.796875 219.105469 249.164062 220.3125 C 249.53125 221.523438 249.839844 222.746094 250.085938 223.988281 C 250.332031 225.226562 250.515625 226.476562 250.640625 227.734375 C 250.765625 228.992188 250.828125 230.25 250.828125 231.515625 Z M 250.828125 231.515625"/><path fill="#FFF" d="M 713.890625 553.09375 L 623.847656 553.09375 L 623.847656 463.054688 C 623.847656 462.207031 623.765625 461.371094 623.601562 460.542969 C 623.4375 459.714844 623.191406 458.910156 622.871094 458.128906 C 622.546875 457.351562 622.148438 456.609375 621.679688 455.90625 C 621.210938 455.203125 620.679688 454.554688 620.082031 453.957031 C 619.484375 453.359375 618.835938 452.828125 618.132812 452.359375 C 617.429688 451.886719 616.6875 451.492188 615.910156 451.167969 C 615.128906 450.847656 614.324219 450.601562 613.496094 450.4375 C 612.667969 450.273438 611.832031 450.191406 610.984375 450.191406 C 610.140625 450.191406 609.304688 450.273438 608.476562 450.4375 C 607.648438 450.601562 606.84375 450.847656 606.0625 451.167969 C 605.285156 451.492188 604.542969 451.886719 603.839844 452.359375 C 603.136719 452.828125 602.488281 453.359375 601.890625 453.957031 C 601.292969 454.554688 600.761719 455.203125 600.289062 455.90625 C 599.820312 456.609375 599.425781 457.351562 599.101562 458.128906 C 598.777344 458.910156 598.535156 459.714844 598.371094 460.542969 C 598.207031 461.371094 598.125 462.207031 598.125 463.054688 L 598.125 553.09375 L 508.082031 553.09375 C 507.238281 553.09375 506.402344 553.179688 505.574219 553.34375 C 504.746094 553.507812 503.941406 553.75 503.160156 554.074219 C 502.378906 554.398438 501.640625 554.792969 500.9375 555.261719 C 500.234375 555.734375 499.585938 556.265625 498.988281 556.863281 C 498.390625 557.460938 497.855469 558.109375 497.386719 558.8125 C 496.917969 559.515625 496.523438 560.257812 496.199219 561.035156 C 495.875 561.816406 495.632812 562.621094 495.46875 563.449219 C 495.304688 564.277344 495.21875 565.113281 495.21875 565.957031 C 495.21875 566.804688 495.304688 567.640625 495.46875 568.46875 C 495.632812 569.296875 495.875 570.101562 496.199219 570.882812 C 496.523438 571.660156 496.917969 572.402344 497.386719 573.105469 C 497.859375 573.808594 498.390625 574.457031 498.988281 575.054688 C 499.585938 575.652344 500.234375 576.183594 500.9375 576.652344 C 501.640625 577.125 502.378906 577.519531 503.160156 577.84375 C 503.941406 578.167969 504.746094 578.410156 505.574219 578.574219 C 506.402344 578.738281 507.238281 578.820312 508.082031 578.820312 L 598.125 578.820312 L 598.125 668.863281 C 598.125 669.710938 598.207031 670.546875 598.371094 671.375 C 598.535156 672.203125 598.777344 673.007812 599.101562 673.785156 C 599.425781 674.566406 599.820312 675.308594 600.289062 676.011719 C 600.761719 676.714844 601.292969 677.363281 601.890625 677.960938 C 602.488281 678.558594 603.136719 679.089844 603.839844 679.558594 C 604.542969 680.027344 605.285156 680.425781 606.0625 680.75 C 606.84375 681.070312 607.648438 681.316406 608.476562 681.480469 C 609.304688 681.644531 610.140625 681.726562 610.984375 681.726562 C 611.832031 681.726562 612.667969 681.644531 613.496094 681.480469 C 614.324219 681.316406 615.128906 681.070312 615.910156 680.75 C 616.6875 680.425781 617.429688 680.027344 618.132812 679.558594 C 618.835938 679.089844 619.484375 678.558594 620.082031 677.960938 C 620.679688 677.363281 621.210938 676.714844 621.679688 676.011719 C 622.148438 675.308594 622.546875 674.566406 622.871094 673.785156 C 623.191406 673.007812 623.4375 672.203125 623.601562 671.375 C 623.765625 670.546875 623.847656 669.710938 623.847656 668.863281 L 623.847656 578.820312 L 713.890625 578.820312 C 714.734375 578.820312 715.570312 578.738281 716.398438 578.574219 C 717.226562 578.410156 718.03125 578.167969 718.8125 577.84375 C 719.589844 577.519531 720.332031 577.125 721.035156 576.652344 C 721.738281 576.183594 722.386719 575.652344 722.984375 575.054688 C 723.582031 574.457031 724.113281 573.808594 724.582031 573.105469 C 725.054688 572.402344 725.449219 571.660156 725.773438 570.882812 C 726.09375 570.101562 726.339844 569.296875 726.503906 568.46875 C 726.667969 567.640625 726.75 566.804688 726.75 565.957031 C 726.75 565.113281 726.667969 564.277344 726.503906 563.449219 C 726.339844 562.621094 726.09375 561.816406 725.773438 561.035156 C 725.449219 560.257812 725.054688 559.515625 724.582031 558.8125 C 724.113281 558.109375 723.582031 557.460938 722.984375 556.863281 C 722.386719 556.265625 721.738281 555.734375 721.035156 555.261719 C 720.332031 554.792969 719.589844 554.398438 718.8125 554.074219 C 718.03125 553.75 717.226562 553.507812 716.398438 553.34375 C 715.570312 553.179688 714.734375 553.09375 713.890625 553.09375 Z M 713.890625 553.09375"/><g clip-path="url(#a)"><path fill="#FFF" d="M 778.203125 64.292969 L 32.15625 64.292969 C 31.3125 64.292969 30.476562 64.375 29.648438 64.539062 C 28.820312 64.707031 28.015625 64.949219 27.234375 65.273438 C 26.457031 65.597656 25.714844 65.992188 25.011719 66.460938 C 24.308594 66.929688 23.660156 67.464844 23.0625 68.0625 C 22.464844 68.660156 21.933594 69.308594 21.464844 70.011719 C 20.992188 70.710938 20.597656 71.453125 20.273438 72.234375 C 19.953125 73.015625 19.707031 73.820312 19.542969 74.648438 C 19.378906 75.476562 19.296875 76.3125 19.296875 77.15625 L 19.296875 591.683594 C 19.296875 592.53125 19.378906 593.367188 19.542969 594.195312 C 19.707031 595.023438 19.953125 595.828125 20.273438 596.609375 C 20.597656 597.386719 20.992188 598.128906 21.464844 598.832031 C 21.933594 599.535156 22.464844 600.183594 23.0625 600.78125 C 23.660156 601.378906 24.308594 601.910156 25.011719 602.378906 C 25.714844 602.851562 26.457031 603.246094 27.234375 603.570312 C 28.015625 603.890625 28.820312 604.136719 29.648438 604.300781 C 30.476562 604.464844 31.3125 604.546875 32.15625 604.546875 L 435.152344 604.546875 C 436.4375 610.167969 437.8125 615.753906 439.628906 621.347656 C 440.347656 623.597656 441.113281 625.832031 441.921875 628.050781 C 442.730469 630.269531 443.582031 632.472656 444.476562 634.660156 C 445.371094 636.84375 446.308594 639.011719 447.289062 641.160156 C 448.273438 643.308594 449.296875 645.4375 450.359375 647.542969 C 451.425781 649.652344 452.53125 651.738281 453.679688 653.804688 C 454.828125 655.867188 456.015625 657.910156 457.242188 659.925781 C 458.472656 661.945312 459.738281 663.9375 461.046875 665.902344 C 462.351562 667.871094 463.695312 669.8125 465.082031 671.726562 C 466.464844 673.640625 467.882812 675.527344 469.34375 677.386719 C 470.800781 679.242188 472.292969 681.074219 473.824219 682.871094 C 475.355469 684.671875 476.921875 686.4375 478.519531 688.175781 C 480.121094 689.914062 481.753906 691.621094 483.421875 693.292969 C 485.089844 694.964844 486.789062 696.605469 488.519531 698.210938 C 490.253906 699.816406 492.015625 701.386719 493.808594 702.921875 C 495.605469 704.457031 497.429688 705.957031 499.28125 707.421875 C 501.136719 708.886719 503.015625 710.3125 504.925781 711.703125 C 506.835938 713.09375 508.773438 714.445312 510.734375 715.757812 C 512.699219 717.070312 514.6875 718.34375 516.699219 719.578125 C 518.714844 720.816406 520.75 722.007812 522.8125 723.164062 C 524.871094 724.316406 526.957031 725.429688 529.058594 726.503906 C 531.164062 727.574219 533.289062 728.605469 535.433594 729.59375 C 537.582031 730.582031 539.746094 731.527344 541.925781 732.429688 C 544.109375 733.332031 546.308594 734.191406 548.527344 735.007812 C 550.742188 735.820312 552.972656 736.59375 555.222656 737.320312 C 557.46875 738.046875 559.730469 738.730469 562.003906 739.371094 C 564.277344 740.007812 566.5625 740.601562 568.859375 741.148438 C 571.15625 741.695312 573.464844 742.199219 575.78125 742.65625 C 578.097656 743.113281 580.425781 743.523438 582.757812 743.890625 C 585.09375 744.253906 587.433594 744.574219 589.777344 744.84375 C 592.125 745.117188 594.476562 745.34375 596.828125 745.523438 C 599.183594 745.703125 601.542969 745.835938 603.902344 745.921875 C 606.261719 746.011719 608.625 746.050781 610.984375 746.042969 C 613.933594 746.050781 616.882812 745.984375 619.828125 745.847656 C 622.773438 745.707031 625.714844 745.496094 628.648438 745.214844 C 631.585938 744.929688 634.511719 744.574219 637.429688 744.148438 C 640.347656 743.722656 643.253906 743.222656 646.144531 742.652344 C 649.039062 742.082031 651.917969 741.441406 654.777344 740.726562 C 657.640625 740.015625 660.484375 739.234375 663.304688 738.382812 C 666.128906 737.53125 668.929688 736.609375 671.707031 735.621094 C 674.484375 734.628906 677.238281 733.570312 679.964844 732.445312 C 682.691406 731.320312 685.386719 730.128906 688.054688 728.871094 C 690.71875 727.613281 693.355469 726.289062 695.957031 724.902344 C 698.558594 723.511719 701.125 722.0625 703.65625 720.546875 C 706.1875 719.035156 708.679688 717.457031 711.128906 715.820312 C 713.582031 714.183594 715.996094 712.488281 718.363281 710.730469 C 720.734375 708.976562 723.058594 707.164062 725.339844 705.292969 C 727.617188 703.421875 729.851562 701.496094 732.035156 699.515625 C 734.222656 697.539062 736.359375 695.503906 738.441406 693.417969 C 740.527344 691.332031 742.5625 689.199219 744.539062 687.011719 C 746.519531 684.828125 748.445312 682.59375 750.316406 680.316406 C 752.1875 678.035156 754 675.710938 755.753906 673.339844 C 757.511719 670.96875 759.207031 668.558594 760.84375 666.105469 C 762.480469 663.652344 764.054688 661.160156 765.570312 658.632812 C 767.085938 656.101562 768.535156 653.535156 769.925781 650.933594 C 771.3125 648.328125 772.636719 645.695312 773.894531 643.027344 C 775.152344 640.359375 776.34375 637.664062 777.46875 634.9375 C 778.59375 632.210938 779.652344 629.460938 780.640625 626.683594 C 781.632812 623.90625 782.550781 621.105469 783.40625 618.28125 C 784.257812 615.457031 785.039062 612.613281 785.75 609.753906 C 786.460938 606.890625 787.105469 604.011719 787.675781 601.121094 C 788.246094 598.226562 788.742188 595.320312 789.171875 592.402344 C 789.597656 589.484375 789.953125 586.558594 790.234375 583.625 C 790.519531 580.6875 790.730469 577.746094 790.867188 574.800781 C 791.007812 571.855469 791.074219 568.90625 791.066406 565.957031 L 791.066406 77.15625 C 791.066406 76.3125 790.984375 75.476562 790.820312 74.648438 C 790.652344 73.820312 790.410156 73.015625 790.085938 72.234375 C 789.761719 71.453125 789.367188 70.710938 788.898438 70.011719 C 788.429688 69.308594 787.894531 68.660156 787.296875 68.0625 C 786.703125 67.464844 786.050781 66.929688 785.347656 66.460938 C 784.648438 65.992188 783.90625 65.597656 783.125 65.273438 C 782.34375 64.949219 781.539062 64.707031 780.710938 64.539062 C 779.882812 64.375 779.046875 64.292969 778.203125 64.292969 Z M 222.941406 527.371094 L 315.140625 383.929688 L 357.007812 448.980469 L 308.015625 527.371094 Z M 508.082031 255.789062 L 590.175781 386.992188 C 586.03125 387.46875 581.96875 388.097656 578.019531 388.859375 C 565.011719 391.257812 552.433594 395.058594 540.277344 400.269531 C 528.121094 405.480469 516.691406 411.964844 505.988281 419.730469 C 505.597656 419.953125 505.21875 420.199219 504.855469 420.464844 C 489.625 431.5 476.492188 444.632812 465.457031 459.863281 C 465.195312 460.226562 464.957031 460.605469 464.734375 460.996094 C 461.015625 466.171875 457.585938 471.53125 454.445312 477.074219 C 453.417969 478.847656 452.605469 480.726562 451.640625 482.539062 C 449.648438 486.324219 447.667969 490.117188 445.941406 494.117188 C 444.964844 496.367188 444.167969 498.710938 443.28125 501.011719 C 441.878906 504.628906 440.476562 508.242188 439.304688 511.960938 C 438.507812 514.53125 437.878906 517.105469 437.183594 519.765625 C 436.488281 522.429688 435.664062 524.808594 435.085938 527.421875 L 338.359375 527.421875 Z M 610.984375 720.316406 C 606.9375 720.328125 602.890625 720.179688 598.851562 719.871094 C 594.8125 719.5625 590.792969 719.097656 586.792969 718.472656 C 582.789062 717.847656 578.820312 717.0625 574.878906 716.125 C 570.941406 715.183594 567.042969 714.089844 563.191406 712.84375 C 559.335938 711.59375 555.539062 710.199219 551.796875 708.648438 C 548.050781 707.101562 544.375 705.410156 540.765625 703.570312 C 537.15625 701.734375 533.625 699.757812 530.171875 697.640625 C 526.71875 695.523438 523.355469 693.273438 520.082031 690.886719 C 516.804688 688.503906 513.628906 685.996094 510.554688 683.363281 C 507.476562 680.730469 504.507812 677.976562 501.648438 675.109375 C 498.789062 672.242188 496.046875 669.265625 493.421875 666.179688 C 490.796875 663.09375 488.300781 659.910156 485.925781 656.628906 C 483.554688 653.34375 481.3125 649.972656 479.207031 646.515625 C 477.101562 643.054688 475.132812 639.515625 473.308594 635.902344 C 471.480469 632.285156 469.796875 628.605469 468.261719 624.859375 C 466.726562 621.109375 465.339844 617.308594 464.105469 613.449219 C 460.410156 601.945312 458.082031 590.171875 457.121094 578.128906 C 456.164062 566.085938 456.601562 554.089844 458.433594 542.148438 L 458.765625 540.296875 C 458.972656 539.304688 459.152344 538.304688 459.242188 537.722656 C 461.3125 526.410156 464.628906 515.476562 469.191406 504.917969 C 473.75 494.359375 479.4375 484.445312 486.253906 475.183594 C 486.527344 474.8125 486.773438 474.425781 487 474.027344 C 496.039062 461.753906 506.695312 451.097656 518.964844 442.058594 C 519.371094 441.828125 519.761719 441.570312 520.136719 441.289062 C 529.417969 434.46875 539.351562 428.78125 549.925781 424.21875 C 560.503906 419.660156 571.460938 416.34375 582.789062 414.277344 C 592.105469 412.480469 601.503906 411.589844 610.984375 411.601562 L 612.53125 411.601562 C 615.285156 411.632812 618.039062 411.742188 620.792969 411.921875 C 623.542969 412.101562 626.289062 412.355469 629.027344 412.683594 C 631.765625 413.011719 634.492188 413.410156 637.207031 413.882812 C 639.921875 414.355469 642.625 414.902344 645.3125 415.519531 C 648 416.136719 650.667969 416.828125 653.320312 417.585938 C 655.96875 418.347656 658.597656 419.179688 661.203125 420.078125 C 663.808594 420.980469 666.390625 421.949219 668.945312 422.988281 C 671.496094 424.027344 674.023438 425.132812 676.515625 426.308594 C 679.011719 427.480469 681.472656 428.722656 683.902344 430.027344 C 686.332031 431.332031 688.722656 432.703125 691.078125 434.136719 C 693.433594 435.570312 695.75 437.066406 698.023438 438.621094 C 700.300781 440.179688 702.53125 441.796875 704.722656 443.472656 C 706.910156 445.152344 709.050781 446.882812 711.148438 448.675781 C 713.246094 450.46875 715.292969 452.3125 717.289062 454.214844 C 719.285156 456.113281 721.230469 458.066406 723.125 460.074219 C 725.019531 462.078125 726.855469 464.132812 728.640625 466.234375 C 730.421875 468.335938 732.148438 470.488281 733.816406 472.683594 C 735.484375 474.878906 737.09375 477.117188 738.640625 479.398438 C 740.191406 481.679688 741.675781 484 743.101562 486.359375 C 744.527344 488.722656 745.886719 491.117188 747.183594 493.550781 C 748.476562 495.984375 749.707031 498.453125 750.871094 500.953125 C 752.039062 503.453125 753.132812 505.980469 754.164062 508.539062 C 755.191406 511.097656 756.152344 513.679688 757.042969 516.289062 C 757.933594 518.898438 758.753906 521.53125 759.503906 524.183594 C 760.253906 526.835938 760.933594 529.507812 761.542969 532.199219 C 762.148438 534.886719 762.683594 537.59375 763.144531 540.3125 C 763.609375 543.027344 764 545.757812 764.316406 548.496094 C 764.632812 551.234375 764.875 553.980469 765.046875 556.734375 C 765.214844 559.484375 765.3125 562.242188 765.335938 564.996094 C 765.355469 567.753906 765.304688 570.511719 765.179688 573.265625 C 765.058594 576.019531 764.859375 578.769531 764.585938 581.511719 C 764.316406 584.257812 763.96875 586.992188 763.550781 589.71875 C 763.191406 591.964844 762.777344 594.199219 762.320312 596.429688 C 761.859375 598.65625 761.351562 600.875 760.792969 603.078125 C 760.234375 605.285156 759.628906 607.476562 758.972656 609.65625 C 758.320312 611.835938 757.617188 614 756.871094 616.148438 C 756.121094 618.296875 755.324219 620.425781 754.480469 622.539062 C 753.640625 624.652344 752.75 626.75 751.816406 628.824219 C 750.878906 630.898438 749.902344 632.949219 748.875 634.980469 C 747.851562 637.011719 746.78125 639.019531 745.667969 641.003906 C 744.554688 642.988281 743.398438 644.945312 742.199219 646.878906 C 741 648.8125 739.757812 650.71875 738.476562 652.597656 C 737.191406 654.476562 735.867188 656.328125 734.503906 658.148438 C 733.140625 659.96875 731.734375 661.757812 730.292969 663.519531 C 728.851562 665.277344 727.367188 667.003906 725.851562 668.695312 C 724.332031 670.390625 722.777344 672.050781 721.183594 673.675781 C 719.59375 675.300781 717.964844 676.890625 716.304688 678.445312 C 714.640625 680 712.945312 681.515625 711.21875 682.996094 C 709.488281 684.476562 707.730469 685.917969 705.9375 687.320312 C 704.144531 688.722656 702.324219 690.082031 700.472656 691.40625 C 698.621094 692.726562 696.742188 694.007812 694.832031 695.246094 C 692.925781 696.488281 690.992188 697.683594 689.03125 698.839844 C 687.070312 699.992188 685.085938 701.105469 683.078125 702.171875 C 681.066406 703.238281 679.035156 704.261719 676.980469 705.238281 C 674.925781 706.21875 672.851562 707.148438 670.757812 708.035156 C 668.660156 708.921875 666.546875 709.761719 664.417969 710.558594 C 662.285156 711.351562 660.136719 712.097656 657.96875 712.796875 C 655.804688 713.496094 653.625 714.148438 651.433594 714.753906 C 649.238281 715.355469 647.03125 715.910156 644.816406 716.417969 C 642.597656 716.925781 640.371094 717.382812 638.132812 717.792969 C 635.894531 718.199219 633.648438 718.558594 631.394531 718.871094 C 629.140625 719.179688 626.878906 719.441406 624.613281 719.652344 C 622.347656 719.863281 620.078125 720.023438 617.808594 720.132812 C 615.535156 720.246094 613.261719 720.304688 610.984375 720.316406 Z M 760.027344 465.292969 C 757.199219 461.125 754.195312 457.082031 751.023438 453.160156 C 750.328125 452.3125 749.609375 451.488281 748.914062 450.589844 C 746.050781 447.160156 743.050781 443.847656 739.910156 440.660156 C 739.332031 440.066406 738.792969 439.449219 738.199219 438.859375 C 734.636719 435.28125 730.894531 431.886719 727.046875 428.566406 C 726.1875 427.847656 725.3125 427.152344 724.476562 426.445312 C 720.9375 423.550781 717.308594 420.785156 713.554688 418.160156 C 713 417.773438 712.460938 417.351562 711.90625 416.976562 C 707.703125 414.109375 703.355469 411.457031 698.917969 408.949219 L 695.867188 407.292969 C 691.6875 405.039062 687.441406 402.917969 683.082031 401 C 682.632812 400.796875 682.183594 400.5625 681.730469 400.371094 C 677 398.324219 672.148438 396.511719 667.222656 394.902344 L 663.761719 393.8125 C 659.003906 392.34375 654.179688 391.019531 649.253906 389.953125 L 648.390625 389.734375 C 643.246094 388.640625 638.023438 387.84375 632.738281 387.160156 C 631.449219 387.007812 630.164062 386.863281 628.878906 386.734375 C 625.917969 386.4375 622.945312 386.21875 619.953125 386.078125 L 518.992188 224.699219 C 518.683594 224.261719 518.351562 223.84375 517.996094 223.445312 C 517.636719 223.050781 517.257812 222.675781 516.855469 222.324219 C 516.453125 221.972656 516.03125 221.644531 515.589844 221.34375 C 515.148438 221.042969 514.691406 220.769531 514.21875 220.523438 C 513.742188 220.277344 513.257812 220.058594 512.757812 219.871094 C 512.257812 219.683594 511.746094 219.527344 511.226562 219.402344 C 510.710938 219.273438 510.183594 219.179688 509.652344 219.113281 C 509.125 219.050781 508.589844 219.019531 508.058594 219.019531 C 507.523438 219.019531 506.992188 219.050781 506.460938 219.113281 C 505.929688 219.179688 505.40625 219.273438 504.886719 219.402344 C 504.367188 219.527344 503.859375 219.683594 503.359375 219.871094 C 502.859375 220.058594 502.371094 220.277344 501.898438 220.523438 C 501.421875 220.769531 500.964844 221.042969 500.523438 221.34375 C 500.082031 221.644531 499.660156 221.972656 499.257812 222.324219 C 498.859375 222.675781 498.476562 223.050781 498.121094 223.445312 C 497.761719 223.84375 497.429688 224.261719 497.125 224.699219 L 372.085938 424.863281 L 325.957031 353.1875 C 325.648438 352.761719 325.316406 352.355469 324.960938 351.96875 C 324.601562 351.585938 324.226562 351.21875 323.824219 350.878906 C 323.425781 350.535156 323.007812 350.21875 322.570312 349.925781 C 322.132812 349.636719 321.679688 349.371094 321.210938 349.128906 C 320.742188 348.890625 320.261719 348.679688 319.769531 348.5 C 319.277344 348.316406 318.773438 348.164062 318.261719 348.042969 C 317.75 347.917969 317.234375 347.828125 316.710938 347.765625 C 316.191406 347.703125 315.667969 347.671875 315.140625 347.671875 C 314.613281 347.671875 314.089844 347.703125 313.570312 347.765625 C 313.046875 347.828125 312.53125 347.917969 312.019531 348.042969 C 311.507812 348.164062 311.003906 348.316406 310.511719 348.5 C 310.019531 348.679688 309.539062 348.890625 309.070312 349.128906 C 308.601562 349.371094 308.148438 349.636719 307.710938 349.925781 C 307.273438 350.21875 306.855469 350.535156 306.457031 350.878906 C 306.054688 351.21875 305.679688 351.585938 305.320312 351.96875 C 304.964844 352.355469 304.632812 352.761719 304.324219 353.1875 L 192.363281 527.371094 L 160.785156 527.371094 C 159.941406 527.371094 159.105469 527.453125 158.277344 527.617188 C 157.449219 527.78125 156.644531 528.023438 155.863281 528.347656 C 155.082031 528.671875 154.34375 529.066406 153.640625 529.535156 C 152.9375 530.007812 152.289062 530.539062 151.691406 531.136719 C 151.09375 531.734375 150.5625 532.382812 150.089844 533.085938 C 149.621094 533.789062 149.226562 534.53125 148.902344 535.308594 C 148.578125 536.089844 148.335938 536.894531 148.171875 537.722656 C 148.007812 538.550781 147.921875 539.386719 147.921875 540.234375 C 147.921875 541.078125 148.007812 541.914062 148.171875 542.742188 C 148.335938 543.570312 148.578125 544.375 148.902344 545.15625 C 149.226562 545.933594 149.621094 546.675781 150.089844 547.378906 C 150.5625 548.082031 151.09375 548.730469 151.691406 549.328125 C 152.289062 549.925781 152.9375 550.457031 153.640625 550.925781 C 154.34375 551.398438 155.082031 551.792969 155.863281 552.117188 C 156.644531 552.441406 157.449219 552.683594 158.277344 552.847656 C 159.105469 553.011719 159.941406 553.09375 160.785156 553.09375 L 431.382812 553.09375 C 431.097656 557.339844 430.90625 561.636719 430.90625 565.957031 C 430.90625 570.28125 431.0625 574.578125 431.34375 578.820312 L 45.019531 578.820312 L 45.019531 90.019531 L 765.339844 90.019531 L 765.339844 473.511719 C 764.144531 471.53125 762.84375 469.652344 761.585938 467.695312 C 761.058594 466.914062 760.566406 466.089844 760.027344 465.292969 Z M 760.027344 465.292969"/></g><path fill="#FFF" d="M 212.238281 180.0625 C 210.554688 180.0625 208.871094 180.144531 207.195312 180.308594 C 205.519531 180.476562 203.851562 180.722656 202.199219 181.050781 C 200.546875 181.378906 198.914062 181.789062 197.300781 182.277344 C 195.691406 182.765625 194.105469 183.335938 192.546875 183.980469 C 190.992188 184.625 189.46875 185.34375 187.984375 186.136719 C 186.496094 186.933594 185.054688 187.796875 183.652344 188.734375 C 182.25 189.671875 180.898438 190.671875 179.597656 191.742188 C 178.292969 192.8125 177.046875 193.941406 175.855469 195.132812 C 174.664062 196.324219 173.535156 197.570312 172.464844 198.875 C 171.394531 200.175781 170.394531 201.527344 169.457031 202.929688 C 168.519531 204.332031 167.65625 205.773438 166.863281 207.261719 C 166.066406 208.746094 165.347656 210.269531 164.703125 211.824219 C 164.058594 213.382812 163.492188 214.96875 163.003906 216.578125 C 162.511719 218.191406 162.105469 219.824219 161.773438 221.476562 C 161.445312 223.128906 161.199219 224.796875 161.035156 226.472656 C 160.867188 228.148438 160.785156 229.832031 160.785156 231.515625 C 160.785156 233.199219 160.867188 234.882812 161.035156 236.558594 C 161.199219 238.234375 161.445312 239.902344 161.773438 241.554688 C 162.105469 243.207031 162.511719 244.839844 163.003906 246.453125 C 163.492188 248.0625 164.058594 249.648438 164.703125 251.207031 C 165.347656 252.761719 166.066406 254.285156 166.863281 255.769531 C 167.65625 257.257812 168.519531 258.699219 169.457031 260.101562 C 170.394531 261.503906 171.394531 262.855469 172.464844 264.15625 C 173.535156 265.460938 174.664062 266.707031 175.855469 267.898438 C 177.046875 269.089844 178.292969 270.21875 179.597656 271.289062 C 180.898438 272.359375 182.25 273.359375 183.652344 274.296875 C 185.054688 275.234375 186.496094 276.097656 187.984375 276.894531 C 189.46875 277.6875 190.992188 278.40625 192.546875 279.050781 C 194.105469 279.695312 195.691406 280.261719 197.300781 280.753906 C 198.914062 281.242188 200.546875 281.652344 202.199219 281.980469 C 203.851562 282.308594 205.519531 282.554688 207.195312 282.71875 C 208.871094 282.886719 210.554688 282.96875 212.238281 282.96875 C 213.921875 282.96875 215.605469 282.886719 217.28125 282.71875 C 218.957031 282.554688 220.621094 282.308594 222.277344 281.980469 C 223.929688 281.652344 225.5625 281.242188 227.171875 280.753906 C 228.785156 280.261719 230.371094 279.695312 231.925781 279.050781 C 233.484375 278.40625 235.003906 277.6875 236.492188 276.894531 C 237.976562 276.097656 239.421875 275.234375 240.824219 274.296875 C 242.222656 273.359375 243.574219 272.359375 244.878906 271.289062 C 246.179688 270.21875 247.429688 269.089844 248.621094 267.898438 C 249.8125 266.707031 250.941406 265.460938 252.011719 264.15625 C 253.078125 262.855469 254.082031 261.503906 255.019531 260.101562 C 255.953125 258.699219 256.820312 257.257812 257.613281 255.769531 C 258.410156 254.285156 259.128906 252.761719 259.773438 251.207031 C 260.417969 249.648438 260.984375 248.0625 261.472656 246.453125 C 261.964844 244.839844 262.371094 243.207031 262.699219 241.554688 C 263.03125 239.902344 263.277344 238.234375 263.441406 236.558594 C 263.605469 234.882812 263.6875 233.199219 263.6875 231.515625 C 263.6875 229.832031 263.605469 228.148438 263.441406 226.472656 C 263.277344 224.796875 263.03125 223.128906 262.699219 221.476562 C 262.371094 219.824219 261.964844 218.191406 261.472656 216.578125 C 260.984375 214.96875 260.417969 213.382812 259.773438 211.824219 C 259.128906 210.269531 258.410156 208.746094 257.613281 207.261719 C 256.820312 205.773438 255.953125 204.332031 255.019531 202.929688 C 254.082031 201.527344 253.078125 200.175781 252.011719 198.875 C 250.941406 197.570312 249.8125 196.324219 248.621094 195.132812 C 247.429688 193.941406 246.179688 192.8125 244.878906 191.742188 C 243.574219 190.671875 242.222656 189.671875 240.824219 188.734375 C 239.421875 187.796875 237.976562 186.933594 236.492188 186.136719 C 235.003906 185.34375 233.484375 184.625 231.925781 183.980469 C 230.371094 183.335938 228.785156 182.765625 227.171875 182.277344 C 225.5625 181.789062 223.929688 181.378906 222.277344 181.050781 C 220.621094 180.722656 218.957031 180.476562 217.28125 180.308594 C 215.605469 180.144531 213.921875 180.0625 212.238281 180.0625 Z M 212.238281 257.242188 C 211.394531 257.242188 210.554688 257.199219 209.714844 257.117188 C 208.878906 257.035156 208.046875 256.910156 207.21875 256.746094 C 206.394531 256.582031 205.578125 256.378906 204.769531 256.132812 C 203.964844 255.890625 203.171875 255.605469 202.394531 255.285156 C 201.613281 254.960938 200.855469 254.601562 200.109375 254.203125 C 199.367188 253.808594 198.644531 253.375 197.945312 252.90625 C 197.246094 252.4375 196.570312 251.9375 195.917969 251.402344 C 195.265625 250.867188 194.644531 250.300781 194.046875 249.707031 C 193.453125 249.109375 192.886719 248.488281 192.351562 247.835938 C 191.816406 247.183594 191.316406 246.507812 190.847656 245.808594 C 190.378906 245.109375 189.945312 244.386719 189.550781 243.644531 C 189.152344 242.898438 188.792969 242.140625 188.46875 241.359375 C 188.148438 240.582031 187.863281 239.789062 187.621094 238.984375 C 187.375 238.175781 187.171875 237.359375 187.007812 236.535156 C 186.84375 235.707031 186.71875 234.875 186.636719 234.035156 C 186.554688 233.199219 186.511719 232.359375 186.511719 231.515625 C 186.511719 230.671875 186.554688 229.832031 186.636719 228.992188 C 186.71875 228.15625 186.84375 227.324219 187.007812 226.496094 C 187.171875 225.671875 187.375 224.855469 187.621094 224.046875 C 187.863281 223.242188 188.148438 222.449219 188.46875 221.671875 C 188.792969 220.890625 189.152344 220.132812 189.550781 219.386719 C 189.945312 218.644531 190.378906 217.921875 190.847656 217.222656 C 191.316406 216.523438 191.816406 215.847656 192.351562 215.195312 C 192.886719 214.542969 193.453125 213.921875 194.046875 213.324219 C 194.644531 212.726562 195.265625 212.164062 195.917969 211.628906 C 196.570312 211.09375 197.246094 210.59375 197.945312 210.125 C 198.644531 209.65625 199.367188 209.222656 200.109375 208.828125 C 200.855469 208.429688 201.613281 208.070312 202.394531 207.746094 C 203.171875 207.425781 203.964844 207.140625 204.769531 206.898438 C 205.578125 206.652344 206.394531 206.449219 207.21875 206.285156 C 208.046875 206.117188 208.878906 205.996094 209.714844 205.914062 C 210.554688 205.832031 211.394531 205.789062 212.238281 205.789062 C 213.082031 205.789062 213.921875 205.832031 214.757812 205.914062 C 215.597656 205.996094 216.429688 206.117188 217.257812 206.285156 C 218.082031 206.449219 218.898438 206.652344 219.707031 206.898438 C 220.511719 207.140625 221.304688 207.425781 222.082031 207.746094 C 222.859375 208.070312 223.621094 208.429688 224.363281 208.828125 C 225.109375 209.222656 225.828125 209.65625 226.53125 210.125 C 227.230469 210.59375 227.90625 211.09375 228.558594 211.628906 C 229.210938 212.164062 229.832031 212.726562 230.429688 213.324219 C 231.023438 213.921875 231.589844 214.542969 232.125 215.195312 C 232.660156 215.847656 233.160156 216.523438 233.628906 217.222656 C 234.097656 217.921875 234.527344 218.644531 234.925781 219.386719 C 235.324219 220.132812 235.683594 220.890625 236.003906 221.671875 C 236.328125 222.449219 236.609375 223.242188 236.855469 224.046875 C 237.101562 224.855469 237.304688 225.671875 237.46875 226.496094 C 237.632812 227.324219 237.757812 228.15625 237.839844 228.992188 C 237.921875 229.832031 237.964844 230.671875 237.964844 231.515625 C 237.964844 232.359375 237.921875 233.199219 237.839844 234.035156 C 237.757812 234.875 237.632812 235.707031 237.46875 236.535156 C 237.304688 237.359375 237.101562 238.175781 236.855469 238.984375 C 236.609375 239.789062 236.328125 240.582031 236.003906 241.359375 C 235.683594 242.140625 235.324219 242.898438 234.925781 243.644531 C 234.527344 244.386719 234.097656 245.109375 233.628906 245.808594 C 233.160156 246.507812 232.660156 247.183594 232.125 247.835938 C 231.589844 248.488281 231.023438 249.109375 230.429688 249.707031 C 229.832031 250.300781 229.210938 250.867188 228.558594 251.402344 C 227.90625 251.9375 227.230469 252.4375 226.53125 252.90625 C 225.828125 253.375 225.109375 253.808594 224.363281 254.203125 C 223.621094 254.601562 222.859375 254.960938 222.082031 255.285156 C 221.304688 255.605469 220.511719 255.890625 219.707031 256.132812 C 218.898438 256.378906 218.082031 256.582031 217.257812 256.746094 C 216.429688 256.910156 215.597656 257.035156 214.757812 257.117188 C 213.921875 257.199219 213.082031 257.242188 212.238281 257.242188 Z M 212.238281 257.242188"/><path fill="#FFF" d="M 212.238281 167.199219 C 213.082031 167.199219 213.917969 167.117188 214.746094 166.953125 C 215.574219 166.789062 216.378906 166.542969 217.160156 166.21875 C 217.941406 165.898438 218.683594 165.5 219.382812 165.03125 C 220.085938 164.5625 220.734375 164.027344 221.332031 163.433594 C 221.929688 162.835938 222.464844 162.183594 222.933594 161.484375 C 223.402344 160.78125 223.796875 160.039062 224.121094 159.257812 C 224.445312 158.476562 224.6875 157.675781 224.855469 156.84375 C 225.019531 156.015625 225.101562 155.179688 225.101562 154.335938 L 225.101562 128.609375 C 225.101562 127.765625 225.019531 126.929688 224.855469 126.101562 C 224.6875 125.273438 224.445312 124.46875 224.121094 123.6875 C 223.796875 122.90625 223.402344 122.164062 222.933594 121.464844 C 222.464844 120.761719 221.929688 120.113281 221.332031 119.515625 C 220.734375 118.917969 220.085938 118.382812 219.382812 117.914062 C 218.683594 117.445312 217.941406 117.050781 217.160156 116.726562 C 216.378906 116.402344 215.574219 116.160156 214.746094 115.992188 C 213.917969 115.828125 213.082031 115.746094 212.238281 115.746094 C 211.394531 115.746094 210.558594 115.828125 209.726562 115.992188 C 208.898438 116.160156 208.097656 116.402344 207.316406 116.726562 C 206.535156 117.050781 205.792969 117.445312 205.089844 117.914062 C 204.390625 118.382812 203.738281 118.917969 203.140625 119.515625 C 202.546875 120.113281 202.011719 120.761719 201.542969 121.464844 C 201.074219 122.164062 200.675781 122.90625 200.355469 123.6875 C 200.03125 124.46875 199.785156 125.273438 199.621094 126.101562 C 199.457031 126.929688 199.375 127.765625 199.375 128.609375 L 199.375 154.335938 C 199.375 155.179688 199.457031 156.015625 199.621094 156.84375 C 199.785156 157.675781 200.03125 158.476562 200.355469 159.257812 C 200.675781 160.039062 201.074219 160.78125 201.542969 161.484375 C 202.011719 162.183594 202.546875 162.835938 203.140625 163.433594 C 203.738281 164.027344 204.390625 164.5625 205.089844 165.03125 C 205.792969 165.5 206.535156 165.898438 207.316406 166.21875 C 208.097656 166.542969 208.898438 166.789062 209.726562 166.953125 C 210.558594 167.117188 211.394531 167.199219 212.238281 167.199219 Z M 212.238281 167.199219"/><path fill="#FFF" d="M 162.511719 171.058594 C 162.933594 171.785156 163.425781 172.460938 163.984375 173.089844 C 164.542969 173.71875 165.15625 174.289062 165.828125 174.796875 C 166.496094 175.304688 167.210938 175.746094 167.964844 176.113281 C 168.722656 176.480469 169.507812 176.773438 170.320312 176.988281 C 171.132812 177.203125 171.957031 177.339844 172.796875 177.390625 C 173.636719 177.445312 174.472656 177.414062 175.308594 177.304688 C 176.140625 177.191406 176.957031 177 177.75 176.730469 C 178.546875 176.460938 179.308594 176.113281 180.039062 175.691406 C 180.765625 175.273438 181.449219 174.785156 182.078125 174.230469 C 182.710938 173.675781 183.285156 173.066406 183.796875 172.402344 C 184.3125 171.734375 184.753906 171.023438 185.128906 170.269531 C 185.503906 169.515625 185.800781 168.734375 186.019531 167.921875 C 186.242188 167.113281 186.378906 166.285156 186.4375 165.449219 C 186.496094 164.609375 186.472656 163.773438 186.367188 162.9375 C 186.261719 162.101562 186.078125 161.285156 185.8125 160.488281 C 185.546875 159.691406 185.203125 158.925781 184.789062 158.195312 L 171.925781 135.917969 C 171.507812 135.179688 171.019531 134.488281 170.464844 133.847656 C 169.90625 133.207031 169.296875 132.628906 168.625 132.109375 C 167.953125 131.589844 167.238281 131.140625 166.480469 130.761719 C 165.722656 130.382812 164.933594 130.082031 164.113281 129.859375 C 163.296875 129.636719 162.464844 129.496094 161.617188 129.441406 C 160.769531 129.382812 159.925781 129.410156 159.085938 129.519531 C 158.246094 129.628906 157.421875 129.816406 156.621094 130.089844 C 155.816406 130.363281 155.046875 130.710938 154.3125 131.132812 C 153.578125 131.558594 152.890625 132.050781 152.253906 132.609375 C 151.617188 133.167969 151.042969 133.785156 150.527344 134.460938 C 150.011719 135.132812 149.566406 135.851562 149.195312 136.613281 C 148.820312 137.375 148.523438 138.167969 148.308594 138.984375 C 148.089844 139.804688 147.957031 140.640625 147.90625 141.484375 C 147.851562 142.332031 147.886719 143.175781 148 144.015625 C 148.113281 144.855469 148.3125 145.679688 148.589844 146.480469 C 148.867188 147.28125 149.21875 148.046875 149.648438 148.78125 Z M 162.511719 171.058594"/><path fill="#FFF" d="M 116.691406 191.203125 L 138.972656 204.066406 C 139.703125 204.496094 140.46875 204.847656 141.269531 205.125 C 142.074219 205.402344 142.894531 205.597656 143.734375 205.714844 C 144.574219 205.828125 145.417969 205.859375 146.265625 205.808594 C 147.109375 205.753906 147.945312 205.621094 148.765625 205.402344 C 149.585938 205.1875 150.375 204.890625 151.136719 204.519531 C 151.898438 204.144531 152.617188 203.703125 153.289062 203.1875 C 153.964844 202.671875 154.582031 202.09375 155.140625 201.457031 C 155.699219 200.820312 156.191406 200.132812 156.617188 199.398438 C 157.039062 198.664062 157.386719 197.898438 157.660156 197.09375 C 157.933594 196.289062 158.121094 195.46875 158.230469 194.625 C 158.339844 193.785156 158.367188 192.941406 158.308594 192.09375 C 158.25 191.25 158.113281 190.417969 157.890625 189.597656 C 157.667969 188.78125 157.367188 187.992188 156.988281 187.230469 C 156.609375 186.472656 156.160156 185.757812 155.640625 185.085938 C 155.121094 184.417969 154.542969 183.804688 153.902344 183.25 C 153.261719 182.691406 152.570312 182.207031 151.835938 181.785156 L 129.554688 168.921875 C 128.824219 168.507812 128.058594 168.167969 127.261719 167.902344 C 126.464844 167.636719 125.648438 167.449219 124.8125 167.34375 C 123.980469 167.238281 123.144531 167.214844 122.304688 167.273438 C 121.464844 167.332031 120.640625 167.472656 119.828125 167.691406 C 119.015625 167.910156 118.234375 168.207031 117.480469 168.582031 C 116.726562 168.957031 116.015625 169.398438 115.351562 169.914062 C 114.683594 170.425781 114.074219 171 113.519531 171.632812 C 112.964844 172.265625 112.480469 172.945312 112.058594 173.671875 C 111.636719 174.402344 111.292969 175.164062 111.019531 175.960938 C 110.75 176.757812 110.558594 177.570312 110.449219 178.40625 C 110.335938 179.238281 110.308594 180.074219 110.359375 180.914062 C 110.414062 181.753906 110.546875 182.578125 110.761719 183.394531 C 110.976562 184.207031 111.269531 184.992188 111.636719 185.746094 C 112.007812 186.503906 112.445312 187.214844 112.953125 187.886719 C 113.460938 188.554688 114.03125 189.167969 114.660156 189.726562 C 115.289062 190.285156 115.96875 190.777344 116.691406 191.203125 Z M 116.691406 191.203125"/><path fill="#FFF" d="M 109.335938 244.378906 L 135.0625 244.378906 C 135.90625 244.378906 136.742188 244.296875 137.570312 244.132812 C 138.398438 243.964844 139.203125 243.722656 139.984375 243.398438 C 140.761719 243.078125 141.503906 242.679688 142.207031 242.210938 C 142.910156 241.742188 143.558594 241.207031 144.15625 240.609375 C 144.753906 240.015625 145.285156 239.363281 145.757812 238.660156 C 146.226562 237.960938 146.621094 237.21875 146.945312 236.4375 C 147.269531 235.65625 147.511719 234.851562 147.675781 234.023438 C 147.839844 233.195312 147.921875 232.359375 147.921875 231.515625 C 147.921875 230.671875 147.839844 229.835938 147.675781 229.007812 C 147.511719 228.175781 147.269531 227.375 146.945312 226.59375 C 146.621094 225.8125 146.226562 225.070312 145.757812 224.367188 C 145.285156 223.667969 144.753906 223.015625 144.15625 222.417969 C 143.558594 221.824219 142.910156 221.289062 142.207031 220.820312 C 141.503906 220.351562 140.761719 219.953125 139.984375 219.632812 C 139.203125 219.308594 138.398438 219.0625 137.570312 218.898438 C 136.742188 218.734375 135.90625 218.652344 135.0625 218.652344 L 109.335938 218.652344 C 108.492188 218.652344 107.652344 218.734375 106.824219 218.898438 C 105.996094 219.0625 105.191406 219.308594 104.414062 219.632812 C 103.632812 219.953125 102.890625 220.351562 102.1875 220.820312 C 101.488281 221.289062 100.835938 221.824219 100.238281 222.417969 C 99.640625 223.015625 99.109375 223.667969 98.640625 224.367188 C 98.171875 225.070312 97.773438 225.8125 97.453125 226.59375 C 97.128906 227.375 96.882812 228.175781 96.71875 229.007812 C 96.554688 229.835938 96.472656 230.671875 96.472656 231.515625 C 96.472656 232.359375 96.554688 233.195312 96.71875 234.023438 C 96.882812 234.851562 97.128906 235.65625 97.453125 236.4375 C 97.773438 237.21875 98.171875 237.960938 98.640625 238.660156 C 99.109375 239.363281 99.640625 240.015625 100.238281 240.609375 C 100.835938 241.207031 101.488281 241.742188 102.1875 242.210938 C 102.890625 242.679688 103.632812 243.078125 104.414062 243.398438 C 105.191406 243.722656 105.996094 243.964844 106.824219 244.132812 C 107.652344 244.296875 108.492188 244.378906 109.335938 244.378906 Z M 109.335938 244.378906"/><path fill="#FFF" d="M 156.542969 263.671875 C 156.121094 262.941406 155.628906 262.257812 155.074219 261.625 C 154.515625 260.988281 153.902344 260.414062 153.234375 259.898438 C 152.5625 259.386719 151.847656 258.941406 151.089844 258.570312 C 150.332031 258.195312 149.546875 257.898438 148.730469 257.679688 C 147.914062 257.460938 147.085938 257.324219 146.242188 257.269531 C 145.402344 257.214844 144.5625 257.242188 143.722656 257.351562 C 142.886719 257.460938 142.066406 257.652344 141.269531 257.925781 C 140.46875 258.195312 139.703125 258.542969 138.972656 258.964844 L 116.691406 271.828125 C 115.957031 272.246094 115.265625 272.734375 114.625 273.289062 C 113.984375 273.847656 113.402344 274.460938 112.882812 275.128906 C 112.363281 275.800781 111.914062 276.515625 111.539062 277.273438 C 111.160156 278.035156 110.859375 278.820312 110.636719 279.640625 C 110.414062 280.460938 110.273438 281.292969 110.21875 282.136719 C 110.160156 282.984375 110.1875 283.828125 110.292969 284.667969 C 110.402344 285.511719 110.59375 286.332031 110.867188 287.136719 C 111.140625 287.9375 111.488281 288.707031 111.910156 289.441406 C 112.335938 290.175781 112.828125 290.863281 113.386719 291.5 C 113.945312 292.136719 114.5625 292.714844 115.238281 293.230469 C 115.910156 293.746094 116.628906 294.1875 117.390625 294.5625 C 118.152344 294.933594 118.941406 295.230469 119.761719 295.445312 C 120.582031 295.664062 121.414062 295.796875 122.261719 295.851562 C 123.109375 295.902344 123.953125 295.871094 124.792969 295.753906 C 125.632812 295.640625 126.453125 295.445312 127.253906 295.167969 C 128.058594 294.890625 128.824219 294.535156 129.554688 294.109375 L 151.835938 281.246094 C 152.566406 280.824219 153.25 280.332031 153.882812 279.777344 C 154.519531 279.21875 155.09375 278.605469 155.605469 277.933594 C 156.121094 277.265625 156.566406 276.550781 156.9375 275.792969 C 157.3125 275.035156 157.609375 274.25 157.828125 273.433594 C 158.046875 272.617188 158.183594 271.789062 158.238281 270.945312 C 158.292969 270.101562 158.265625 269.261719 158.15625 268.425781 C 158.042969 267.589844 157.855469 266.769531 157.582031 265.96875 C 157.3125 265.171875 156.964844 264.40625 156.542969 263.671875 Z M 156.542969 263.671875"/><path fill="#FFF" d="M 180.082031 287.214844 C 179.347656 286.789062 178.582031 286.445312 177.785156 286.171875 C 176.984375 285.902344 176.164062 285.710938 175.328125 285.601562 C 174.492188 285.488281 173.652344 285.460938 172.808594 285.515625 C 171.964844 285.574219 171.136719 285.710938 170.320312 285.929688 C 169.503906 286.148438 168.71875 286.441406 167.960938 286.816406 C 167.203125 287.191406 166.488281 287.632812 165.820312 288.148438 C 165.148438 288.660156 164.535156 289.238281 163.980469 289.871094 C 163.421875 290.507812 162.933594 291.191406 162.511719 291.921875 L 149.648438 314.199219 C 149.21875 314.933594 148.867188 315.699219 148.589844 316.5 C 148.3125 317.300781 148.113281 318.121094 148 318.964844 C 147.886719 319.804688 147.851562 320.648438 147.90625 321.492188 C 147.957031 322.339844 148.089844 323.171875 148.308594 323.992188 C 148.523438 324.8125 148.820312 325.605469 149.195312 326.367188 C 149.566406 327.128906 150.011719 327.84375 150.527344 328.519531 C 151.042969 329.191406 151.617188 329.808594 152.253906 330.371094 C 152.890625 330.929688 153.578125 331.421875 154.3125 331.84375 C 155.046875 332.269531 155.816406 332.617188 156.621094 332.890625 C 157.421875 333.160156 158.246094 333.351562 159.085938 333.460938 C 159.925781 333.570312 160.769531 333.597656 161.617188 333.539062 C 162.464844 333.480469 163.296875 333.339844 164.113281 333.121094 C 164.933594 332.898438 165.722656 332.597656 166.480469 332.21875 C 167.238281 331.839844 167.953125 331.390625 168.625 330.871094 C 169.296875 330.351562 169.90625 329.773438 170.464844 329.128906 C 171.019531 328.488281 171.507812 327.800781 171.925781 327.0625 L 184.789062 304.785156 C 185.210938 304.054688 185.558594 303.289062 185.828125 302.488281 C 186.101562 301.6875 186.292969 300.871094 186.402344 300.03125 C 186.511719 299.195312 186.539062 298.355469 186.484375 297.511719 C 186.429688 296.667969 186.292969 295.839844 186.074219 295.023438 C 185.855469 294.207031 185.558594 293.421875 185.183594 292.664062 C 184.8125 291.90625 184.367188 291.191406 183.855469 290.523438 C 183.339844 289.851562 182.765625 289.238281 182.128906 288.683594 C 181.496094 288.125 180.8125 287.636719 180.082031 287.214844 Z M 180.082031 287.214844"/><path fill="#FFF" d="M 212.238281 295.832031 C 211.394531 295.832031 210.558594 295.914062 209.730469 296.078125 C 208.898438 296.242188 208.097656 296.488281 207.316406 296.8125 C 206.535156 297.132812 205.792969 297.53125 205.089844 298 C 204.390625 298.46875 203.738281 299 203.140625 299.597656 C 202.546875 300.195312 202.011719 300.847656 201.542969 301.546875 C 201.074219 302.25 200.675781 302.992188 200.355469 303.773438 C 200.03125 304.550781 199.785156 305.355469 199.621094 306.183594 C 199.457031 307.011719 199.375 307.851562 199.375 308.695312 L 199.375 334.421875 C 199.375 335.265625 199.457031 336.101562 199.621094 336.929688 C 199.785156 337.757812 200.03125 338.5625 200.355469 339.34375 C 200.675781 340.125 201.074219 340.867188 201.542969 341.566406 C 202.011719 342.269531 202.546875 342.917969 203.140625 343.515625 C 203.738281 344.113281 204.390625 344.648438 205.089844 345.117188 C 205.792969 345.585938 206.535156 345.980469 207.316406 346.304688 C 208.097656 346.628906 208.898438 346.871094 209.726562 347.039062 C 210.558594 347.203125 211.394531 347.285156 212.238281 347.285156 C 213.082031 347.285156 213.917969 347.203125 214.746094 347.039062 C 215.574219 346.871094 216.378906 346.628906 217.160156 346.304688 C 217.941406 345.980469 218.683594 345.585938 219.382812 345.117188 C 220.085938 344.648438 220.734375 344.113281 221.332031 343.515625 C 221.929688 342.917969 222.464844 342.269531 222.933594 341.566406 C 223.402344 340.867188 223.796875 340.125 224.121094 339.34375 C 224.445312 338.5625 224.6875 337.757812 224.855469 336.929688 C 225.019531 336.101562 225.101562 335.265625 225.101562 334.421875 L 225.101562 308.695312 C 225.101562 307.851562 225.019531 307.011719 224.855469 306.183594 C 224.6875 305.355469 224.445312 304.550781 224.121094 303.773438 C 223.796875 302.992188 223.402344 302.25 222.933594 301.546875 C 222.464844 300.847656 221.929688 300.195312 221.332031 299.597656 C 220.734375 299 220.085938 298.46875 219.382812 298 C 218.683594 297.53125 217.941406 297.132812 217.160156 296.8125 C 216.378906 296.488281 215.574219 296.242188 214.746094 296.078125 C 213.917969 295.914062 213.082031 295.832031 212.238281 295.832031 Z M 212.238281 295.832031"/><path fill="#FFF" d="M 261.964844 291.972656 C 261.546875 291.234375 261.058594 290.546875 260.503906 289.90625 C 259.949219 289.265625 259.335938 288.683594 258.664062 288.164062 C 257.996094 287.644531 257.28125 287.195312 256.519531 286.816406 C 255.761719 286.4375 254.972656 286.140625 254.152344 285.917969 C 253.335938 285.695312 252.503906 285.554688 251.65625 285.496094 C 250.8125 285.4375 249.96875 285.464844 249.125 285.574219 C 248.285156 285.683594 247.460938 285.875 246.660156 286.148438 C 245.855469 286.417969 245.085938 286.765625 244.351562 287.191406 C 243.617188 287.613281 242.933594 288.105469 242.292969 288.667969 C 241.65625 289.226562 241.082031 289.84375 240.566406 290.515625 C 240.050781 291.191406 239.605469 291.910156 239.234375 292.671875 C 238.859375 293.433594 238.566406 294.222656 238.347656 295.042969 C 238.132812 295.863281 237.996094 296.695312 237.945312 297.542969 C 237.894531 298.390625 237.925781 299.234375 238.039062 300.074219 C 238.15625 300.914062 238.351562 301.734375 238.628906 302.535156 C 238.90625 303.335938 239.257812 304.105469 239.6875 304.835938 L 252.550781 327.113281 C 252.96875 327.851562 253.457031 328.542969 254.011719 329.183594 C 254.566406 329.824219 255.179688 330.402344 255.851562 330.921875 C 256.519531 331.441406 257.234375 331.890625 257.996094 332.269531 C 258.753906 332.648438 259.542969 332.949219 260.363281 333.171875 C 261.179688 333.394531 262.011719 333.53125 262.859375 333.589844 C 263.707031 333.648438 264.546875 333.621094 265.390625 333.511719 C 266.230469 333.402344 267.054688 333.210938 267.855469 332.941406 C 268.660156 332.667969 269.429688 332.320312 270.164062 331.898438 C 270.898438 331.472656 271.582031 330.980469 272.222656 330.421875 C 272.859375 329.859375 273.433594 329.246094 273.949219 328.570312 C 274.464844 327.898438 274.910156 327.179688 275.28125 326.417969 C 275.65625 325.65625 275.949219 324.863281 276.167969 324.042969 C 276.382812 323.226562 276.519531 322.390625 276.570312 321.542969 C 276.621094 320.699219 276.589844 319.855469 276.476562 319.015625 C 276.359375 318.175781 276.164062 317.351562 275.886719 316.550781 C 275.609375 315.75 275.257812 314.984375 274.828125 314.25 Z M 261.964844 291.972656"/><path fill="#FFF" d="M 307.78125 271.828125 L 285.503906 258.964844 C 284.773438 258.535156 284.007812 258.183594 283.203125 257.90625 C 282.402344 257.628906 281.582031 257.433594 280.742188 257.316406 C 279.902344 257.203125 279.058594 257.171875 278.210938 257.222656 C 277.363281 257.277344 276.53125 257.410156 275.710938 257.625 C 274.890625 257.84375 274.101562 258.136719 273.339844 258.511719 C 272.578125 258.886719 271.859375 259.328125 271.1875 259.84375 C 270.511719 260.359375 269.894531 260.9375 269.335938 261.574219 C 268.777344 262.210938 268.285156 262.894531 267.859375 263.628906 C 267.4375 264.367188 267.089844 265.132812 266.816406 265.9375 C 266.542969 266.742188 266.351562 267.5625 266.242188 268.40625 C 266.132812 269.246094 266.109375 270.089844 266.167969 270.933594 C 266.222656 271.78125 266.363281 272.613281 266.585938 273.433594 C 266.808594 274.25 267.109375 275.039062 267.488281 275.800781 C 267.863281 276.558594 268.3125 277.273438 268.832031 277.945312 C 269.351562 278.613281 269.933594 279.226562 270.574219 279.78125 C 271.214844 280.339844 271.90625 280.824219 272.640625 281.246094 L 294.921875 294.109375 C 295.652344 294.535156 296.417969 294.890625 297.21875 295.167969 C 298.023438 295.445312 298.84375 295.640625 299.683594 295.753906 C 300.523438 295.871094 301.367188 295.902344 302.214844 295.851562 C 303.058594 295.796875 303.894531 295.664062 304.714844 295.445312 C 305.535156 295.230469 306.324219 294.933594 307.085938 294.5625 C 307.847656 294.1875 308.566406 293.746094 309.238281 293.230469 C 309.914062 292.714844 310.527344 292.136719 311.089844 291.5 C 311.648438 290.863281 312.140625 290.175781 312.566406 289.441406 C 312.988281 288.707031 313.335938 287.9375 313.609375 287.136719 C 313.882812 286.332031 314.070312 285.511719 314.179688 284.667969 C 314.289062 283.828125 314.316406 282.984375 314.257812 282.136719 C 314.199219 281.292969 314.0625 280.460938 313.839844 279.640625 C 313.617188 278.820312 313.316406 278.035156 312.9375 277.273438 C 312.558594 276.515625 312.109375 275.800781 311.589844 275.128906 C 311.070312 274.460938 310.492188 273.847656 309.851562 273.289062 C 309.210938 272.734375 308.519531 272.246094 307.78125 271.828125 Z M 307.78125 271.828125"/><path fill="#FFF" d="M 315.140625 218.652344 L 289.414062 218.652344 C 288.570312 218.652344 287.734375 218.734375 286.90625 218.898438 C 286.078125 219.0625 285.273438 219.308594 284.492188 219.632812 C 283.710938 219.953125 282.972656 220.351562 282.269531 220.820312 C 281.566406 221.289062 280.917969 221.824219 280.320312 222.417969 C 279.722656 223.015625 279.1875 223.667969 278.71875 224.367188 C 278.25 225.070312 277.855469 225.8125 277.53125 226.59375 C 277.207031 227.375 276.964844 228.175781 276.800781 229.007812 C 276.632812 229.835938 276.550781 230.671875 276.550781 231.515625 C 276.550781 232.359375 276.632812 233.195312 276.800781 234.023438 C 276.964844 234.851562 277.207031 235.65625 277.53125 236.4375 C 277.855469 237.21875 278.25 237.960938 278.71875 238.660156 C 279.1875 239.363281 279.722656 240.015625 280.320312 240.609375 C 280.917969 241.207031 281.566406 241.742188 282.269531 242.210938 C 282.972656 242.679688 283.710938 243.078125 284.492188 243.398438 C 285.273438 243.722656 286.078125 243.964844 286.90625 244.132812 C 287.734375 244.296875 288.570312 244.378906 289.414062 244.378906 L 315.140625 244.378906 C 315.984375 244.378906 316.820312 244.296875 317.648438 244.132812 C 318.476562 243.964844 319.28125 243.722656 320.0625 243.398438 C 320.84375 243.078125 321.585938 242.679688 322.285156 242.210938 C 322.988281 241.742188 323.640625 241.207031 324.234375 240.609375 C 324.832031 240.015625 325.367188 239.363281 325.835938 238.660156 C 326.304688 237.960938 326.699219 237.21875 327.023438 236.4375 C 327.347656 235.65625 327.589844 234.851562 327.757812 234.023438 C 327.921875 233.195312 328.003906 232.359375 328.003906 231.515625 C 328.003906 230.671875 327.921875 229.835938 327.757812 229.007812 C 327.589844 228.175781 327.347656 227.375 327.023438 226.59375 C 326.699219 225.8125 326.304688 225.070312 325.835938 224.367188 C 325.367188 223.667969 324.832031 223.015625 324.234375 222.417969 C 323.640625 221.824219 322.988281 221.289062 322.285156 220.820312 C 321.585938 220.351562 320.84375 219.953125 320.0625 219.632812 C 319.28125 219.308594 318.476562 219.0625 317.648438 218.898438 C 316.820312 218.734375 315.984375 218.652344 315.140625 218.652344 Z M 315.140625 218.652344"/><path fill="#FFF" d="M 267.933594 199.359375 C 268.355469 200.089844 268.847656 200.773438 269.402344 201.40625 C 269.960938 202.042969 270.574219 202.617188 271.242188 203.128906 C 271.914062 203.644531 272.628906 204.089844 273.382812 204.460938 C 274.140625 204.835938 274.929688 205.132812 275.746094 205.351562 C 276.558594 205.570312 277.390625 205.707031 278.230469 205.761719 C 279.074219 205.816406 279.914062 205.789062 280.753906 205.679688 C 281.589844 205.566406 282.40625 205.378906 283.207031 205.105469 C 284.007812 204.835938 284.773438 204.488281 285.503906 204.066406 L 307.78125 191.203125 C 308.519531 190.78125 309.210938 190.296875 309.851562 189.738281 C 310.492188 189.183594 311.070312 188.570312 311.589844 187.902344 C 312.109375 187.230469 312.558594 186.515625 312.9375 185.757812 C 313.316406 184.996094 313.617188 184.207031 313.839844 183.390625 C 314.0625 182.570312 314.199219 181.738281 314.257812 180.894531 C 314.316406 180.046875 314.289062 179.203125 314.179688 178.363281 C 314.070312 177.519531 313.882812 176.699219 313.609375 175.894531 C 313.335938 175.09375 312.988281 174.324219 312.566406 173.589844 C 312.140625 172.855469 311.648438 172.167969 311.089844 171.53125 C 310.527344 170.894531 309.914062 170.316406 309.238281 169.800781 C 308.566406 169.285156 307.847656 168.84375 307.085938 168.46875 C 306.324219 168.097656 305.535156 167.800781 304.714844 167.585938 C 303.894531 167.367188 303.058594 167.234375 302.214844 167.179688 C 301.367188 167.128906 300.523438 167.160156 299.683594 167.277344 C 298.84375 167.390625 298.023438 167.585938 297.21875 167.863281 C 296.417969 168.140625 295.652344 168.492188 294.921875 168.921875 L 272.640625 181.785156 C 271.910156 182.207031 271.226562 182.699219 270.59375 183.253906 C 269.957031 183.8125 269.382812 184.425781 268.867188 185.09375 C 268.355469 185.765625 267.910156 186.480469 267.539062 187.238281 C 267.164062 187.996094 266.867188 188.78125 266.648438 189.597656 C 266.429688 190.414062 266.292969 191.242188 266.238281 192.085938 C 266.183594 192.925781 266.210938 193.769531 266.320312 194.605469 C 266.429688 195.441406 266.621094 196.261719 266.894531 197.0625 C 267.164062 197.859375 267.511719 198.625 267.933594 199.359375 Z M 267.933594 199.359375"/><path fill="#FFF" d="M 244.394531 175.816406 C 245.125 176.238281 245.890625 176.585938 246.691406 176.859375 C 247.492188 177.128906 248.308594 177.320312 249.148438 177.429688 C 249.984375 177.542969 250.824219 177.570312 251.667969 177.511719 C 252.511719 177.457031 253.339844 177.320312 254.15625 177.101562 C 254.972656 176.882812 255.757812 176.589844 256.515625 176.214844 C 257.273438 175.839844 257.988281 175.398438 258.65625 174.882812 C 259.328125 174.367188 259.941406 173.792969 260.496094 173.160156 C 261.054688 172.523438 261.542969 171.839844 261.964844 171.109375 L 274.828125 148.832031 C 275.246094 148.101562 275.585938 147.335938 275.851562 146.539062 C 276.117188 145.738281 276.300781 144.921875 276.40625 144.089844 C 276.511719 143.253906 276.535156 142.417969 276.476562 141.578125 C 276.421875 140.738281 276.28125 139.914062 276.058594 139.101562 C 275.839844 138.292969 275.542969 137.507812 275.167969 136.753906 C 274.796875 136 274.351562 135.292969 273.839844 134.625 C 273.324219 133.960938 272.753906 133.347656 272.121094 132.792969 C 271.488281 132.242188 270.808594 131.753906 270.078125 131.332031 C 269.351562 130.914062 268.585938 130.566406 267.792969 130.296875 C 266.996094 130.023438 266.179688 129.832031 265.347656 129.722656 C 264.511719 129.613281 263.675781 129.582031 262.835938 129.636719 C 262 129.6875 261.171875 129.820312 260.359375 130.035156 C 259.546875 130.25 258.761719 130.542969 258.003906 130.914062 C 257.25 131.28125 256.535156 131.71875 255.867188 132.230469 C 255.199219 132.738281 254.582031 133.304688 254.023438 133.9375 C 253.46875 134.566406 252.976562 135.242188 252.550781 135.96875 L 239.6875 158.246094 C 239.265625 158.976562 238.917969 159.742188 238.648438 160.542969 C 238.375 161.34375 238.183594 162.160156 238.074219 163 C 237.964844 163.835938 237.9375 164.675781 237.992188 165.519531 C 238.046875 166.363281 238.183594 167.191406 238.402344 168.007812 C 238.621094 168.824219 238.917969 169.609375 239.289062 170.367188 C 239.664062 171.125 240.109375 171.839844 240.621094 172.507812 C 241.136719 173.179688 241.710938 173.792969 242.34375 174.347656 C 242.980469 174.90625 243.664062 175.394531 244.394531 175.816406 Z M 244.394531 175.816406"/><path fill="#FFF" d="M 109.335938 527.371094 L 83.609375 527.371094 C 82.765625 527.371094 81.929688 527.453125 81.101562 527.617188 C 80.273438 527.78125 79.46875 528.023438 78.6875 528.347656 C 77.90625 528.671875 77.164062 529.066406 76.464844 529.535156 C 75.761719 530.007812 75.109375 530.539062 74.515625 531.136719 C 73.917969 531.734375 73.382812 532.382812 72.914062 533.085938 C 72.445312 533.789062 72.050781 534.53125 71.726562 535.308594 C 71.402344 536.089844 71.160156 536.894531 70.992188 537.722656 C 70.828125 538.550781 70.746094 539.386719 70.746094 540.234375 C 70.746094 541.078125 70.828125 541.914062 70.992188 542.742188 C 71.160156 543.570312 71.402344 544.375 71.726562 545.15625 C 72.050781 545.933594 72.445312 546.675781 72.914062 547.378906 C 73.382812 548.082031 73.917969 548.730469 74.515625 549.328125 C 75.109375 549.925781 75.761719 550.457031 76.464844 550.925781 C 77.164062 551.398438 77.90625 551.792969 78.6875 552.117188 C 79.46875 552.441406 80.273438 552.683594 81.101562 552.847656 C 81.929688 553.011719 82.765625 553.09375 83.609375 553.09375 L 109.335938 553.09375 C 110.179688 553.09375 111.015625 553.011719 111.84375 552.847656 C 112.671875 552.683594 113.476562 552.441406 114.257812 552.117188 C 115.039062 551.792969 115.777344 551.398438 116.480469 550.925781 C 117.183594 550.457031 117.832031 549.925781 118.429688 549.328125 C 119.027344 548.730469 119.5625 548.082031 120.03125 547.378906 C 120.5 546.675781 120.894531 545.933594 121.21875 545.15625 C 121.542969 544.375 121.785156 543.570312 121.949219 542.742188 C 122.117188 541.914062 122.199219 541.078125 122.199219 540.234375 C 122.199219 539.386719 122.117188 538.550781 121.949219 537.722656 C 121.785156 536.894531 121.542969 536.089844 121.21875 535.308594 C 120.894531 534.53125 120.5 533.789062 120.03125 533.085938 C 119.5625 532.382812 119.027344 531.734375 118.429688 531.136719 C 117.832031 530.539062 117.183594 530.007812 116.480469 529.535156 C 115.777344 529.066406 115.039062 528.671875 114.257812 528.347656 C 113.476562 528.023438 112.671875 527.78125 111.84375 527.617188 C 111.015625 527.453125 110.179688 527.371094 109.335938 527.371094 Z M 109.335938 527.371094"/></svg>