<svg xmlns="http://www.w3.org/2000/svg" width="810" viewBox="0 0 810 810" height="810" version="1.0"><path fill="#FFF" d="M-81 -81H891V891H-81z"/><path fill="#FFF" d="M-81 -81H891V891H-81z"/><path fill="#FFF" d="M-81 -81H891V891H-81z"/><path fill="#D9D9D9" d="M 14.453125 809.964844 L 795.417969 809.964844 C 811.390625 809.964844 824.339844 797.011719 824.339844 781.035156 L 824.339844 28.894531 C 824.339844 12.917969 811.390625 -0.0351562 795.417969 -0.0351562 L 14.453125 -0.0351562 C -1.519531 -0.0351562 -14.46875 12.917969 -14.46875 28.894531 L -14.46875 781.035156 C -14.46875 797.011719 -1.519531 809.964844 14.453125 809.964844"/><path fill="#3CBCAA" d="M 824.339844 28.894531 L 824.339844 115.679688 L -14.46875 115.679688 L -14.46875 28.894531 C -14.46875 12.910156 -1.527344 -0.0351562 14.453125 -0.0351562 L 795.417969 -0.0351562 C 811.398438 -0.0351562 824.339844 12.910156 824.339844 28.894531"/><path fill="#D9D9D9" d="M 173.539062 57.820312 C 173.539062 65.808594 167.0625 72.285156 159.078125 72.285156 C 151.089844 72.285156 144.613281 65.808594 144.613281 57.820312 C 144.613281 49.835938 151.089844 43.359375 159.078125 43.359375 C 167.0625 43.359375 173.539062 49.835938 173.539062 57.820312"/><path fill="#D9D9D9" d="M 115.691406 57.820312 C 115.691406 65.808594 109.214844 72.285156 101.226562 72.285156 C 93.242188 72.285156 86.765625 65.808594 86.765625 57.820312 C 86.765625 49.835938 93.242188 43.359375 101.226562 43.359375 C 109.214844 43.359375 115.691406 49.835938 115.691406 57.820312"/><path fill="#D9D9D9" d="M 57.839844 57.820312 C 57.839844 65.808594 51.367188 72.285156 43.378906 72.285156 C 35.390625 72.285156 28.917969 65.808594 28.917969 57.820312 C 28.917969 49.835938 35.390625 43.359375 43.378906 43.359375 C 51.367188 43.359375 57.839844 49.835938 57.839844 57.820312"/><path fill="#1E3048" d="M 245.851562 434.832031 L 72.304688 434.832031 L 72.304688 203.402344 L 245.851562 203.402344 L 245.851562 434.832031"/><path fill="#1E3048" d="M 491.710938 434.832031 L 318.164062 434.832031 L 318.164062 203.402344 L 491.710938 203.402344 L 491.710938 434.832031"/><path fill="#1E3048" d="M 737.566406 434.832031 L 564.019531 434.832031 L 564.019531 203.402344 L 737.566406 203.402344 L 737.566406 434.832031"/><path fill="#3CBCAA" d="M 130.152344 507.152344 L 101.226562 507.152344 C 93.242188 507.152344 86.765625 500.675781 86.765625 492.691406 C 86.765625 484.703125 93.242188 478.226562 101.226562 478.226562 L 130.152344 478.226562 C 138.140625 478.226562 144.613281 484.703125 144.613281 492.691406 C 144.613281 500.675781 138.140625 507.152344 130.152344 507.152344"/><path fill="#3CBCAA" d="M 245.851562 507.152344 L 188 507.152344 C 180.015625 507.152344 173.539062 500.675781 173.539062 492.691406 C 173.539062 484.703125 180.015625 478.226562 188 478.226562 L 245.851562 478.226562 C 253.835938 478.226562 260.3125 484.703125 260.3125 492.691406 C 260.3125 500.675781 253.835938 507.152344 245.851562 507.152344"/><path fill="#3CBCAA" d="M 188 565.011719 L 72.304688 565.011719 C 64.316406 565.011719 57.839844 558.535156 57.839844 550.546875 C 57.839844 542.558594 64.316406 536.082031 72.304688 536.082031 L 188 536.082031 C 195.988281 536.082031 202.464844 542.558594 202.464844 550.546875 C 202.464844 558.535156 195.988281 565.011719 188 565.011719"/><path fill="#3CBCAA" d="M 245.851562 680.726562 L 130.152344 680.726562 C 122.167969 680.726562 115.691406 674.25 115.691406 666.261719 C 115.691406 658.273438 122.167969 651.796875 130.152344 651.796875 L 245.851562 651.796875 C 253.835938 651.796875 260.3125 658.273438 260.3125 666.261719 C 260.3125 674.25 253.835938 680.726562 245.851562 680.726562"/><path fill="#3CBCAA" d="M 245.851562 738.582031 L 72.304688 738.582031 C 64.316406 738.582031 57.839844 732.105469 57.839844 724.117188 C 57.839844 716.128906 64.316406 709.652344 72.304688 709.652344 L 245.851562 709.652344 C 253.835938 709.652344 260.3125 716.128906 260.3125 724.117188 C 260.3125 732.105469 253.835938 738.582031 245.851562 738.582031"/><path fill="#3CBCAA" d="M 245.851562 622.867188 L 72.304688 622.867188 C 64.316406 622.867188 57.839844 616.390625 57.839844 608.402344 C 57.839844 600.417969 64.316406 593.941406 72.304688 593.941406 L 245.851562 593.941406 C 253.835938 593.941406 260.3125 600.417969 260.3125 608.402344 C 260.3125 616.390625 253.835938 622.867188 245.851562 622.867188"/><path fill="#3CBCAA" d="M 86.765625 666.261719 C 86.765625 674.25 80.289062 680.726562 72.304688 680.726562 C 64.316406 680.726562 57.839844 674.25 57.839844 666.261719 C 57.839844 658.273438 64.316406 651.796875 72.304688 651.796875 C 80.289062 651.796875 86.765625 658.273438 86.765625 666.261719"/><path fill="#3CBCAA" d="M 260.3125 550.546875 C 260.3125 558.535156 253.835938 565.011719 245.851562 565.011719 C 237.863281 565.011719 231.390625 558.535156 231.390625 550.546875 C 231.390625 542.558594 237.863281 536.082031 245.851562 536.082031 C 253.835938 536.082031 260.3125 542.558594 260.3125 550.546875"/><path fill="#FFF" d="M 216.925781 434.832031 L 72.304688 434.832031 L 144.613281 319.117188 Z M 216.925781 434.832031"/><path fill="#F4CA21" d="M 202.464844 261.261719 C 202.464844 269.25 195.988281 275.726562 188 275.726562 C 180.015625 275.726562 173.539062 269.25 173.539062 261.261719 C 173.539062 253.273438 180.015625 246.796875 188 246.796875 C 195.988281 246.796875 202.464844 253.273438 202.464844 261.261719"/><path fill="#FFF" d="M 462.785156 434.832031 L 318.164062 434.832031 L 390.472656 319.117188 Z M 462.785156 434.832031"/><path fill="#F4CA21" d="M 448.324219 261.261719 C 448.324219 269.25 441.847656 275.726562 433.859375 275.726562 C 425.875 275.726562 419.398438 269.25 419.398438 261.261719 C 419.398438 253.273438 425.875 246.796875 433.859375 246.796875 C 441.847656 246.796875 448.324219 253.273438 448.324219 261.261719"/><path fill="#FFF" d="M 708.644531 434.832031 L 564.019531 434.832031 L 636.332031 319.117188 Z M 708.644531 434.832031"/><path fill="#F4CA21" d="M 694.179688 261.261719 C 694.179688 269.25 687.707031 275.726562 679.71875 275.726562 C 671.730469 275.726562 665.257812 269.25 665.257812 261.261719 C 665.257812 253.273438 671.730469 246.796875 679.71875 246.796875 C 687.707031 246.796875 694.179688 253.273438 694.179688 261.261719"/><path fill="#3CBCAA" d="M 376.011719 507.152344 L 347.085938 507.152344 C 339.101562 507.152344 332.625 500.675781 332.625 492.691406 C 332.625 484.703125 339.101562 478.226562 347.085938 478.226562 L 376.011719 478.226562 C 384 478.226562 390.472656 484.703125 390.472656 492.691406 C 390.472656 500.675781 384 507.152344 376.011719 507.152344"/><path fill="#3CBCAA" d="M 491.710938 507.152344 L 433.859375 507.152344 C 425.875 507.152344 419.398438 500.675781 419.398438 492.691406 C 419.398438 484.703125 425.875 478.226562 433.859375 478.226562 L 491.710938 478.226562 C 499.695312 478.226562 506.171875 484.703125 506.171875 492.691406 C 506.171875 500.675781 499.695312 507.152344 491.710938 507.152344"/><path fill="#3CBCAA" d="M 433.859375 565.011719 L 318.164062 565.011719 C 310.175781 565.011719 303.699219 558.535156 303.699219 550.546875 C 303.699219 542.558594 310.175781 536.082031 318.164062 536.082031 L 433.859375 536.082031 C 441.847656 536.082031 448.324219 542.558594 448.324219 550.546875 C 448.324219 558.535156 441.847656 565.011719 433.859375 565.011719"/><path fill="#3CBCAA" d="M 491.710938 680.726562 L 376.011719 680.726562 C 368.023438 680.726562 361.550781 674.25 361.550781 666.261719 C 361.550781 658.273438 368.023438 651.796875 376.011719 651.796875 L 491.710938 651.796875 C 499.695312 651.796875 506.171875 658.273438 506.171875 666.261719 C 506.171875 674.25 499.695312 680.726562 491.710938 680.726562"/><path fill="#3CBCAA" d="M 491.710938 738.582031 L 318.164062 738.582031 C 310.175781 738.582031 303.699219 732.105469 303.699219 724.117188 C 303.699219 716.128906 310.175781 709.652344 318.164062 709.652344 L 491.710938 709.652344 C 499.695312 709.652344 506.171875 716.128906 506.171875 724.117188 C 506.171875 732.105469 499.695312 738.582031 491.710938 738.582031"/><path fill="#3CBCAA" d="M 491.710938 622.867188 L 318.164062 622.867188 C 310.175781 622.867188 303.699219 616.390625 303.699219 608.402344 C 303.699219 600.417969 310.175781 593.941406 318.164062 593.941406 L 491.710938 593.941406 C 499.695312 593.941406 506.171875 600.417969 506.171875 608.402344 C 506.171875 616.390625 499.695312 622.867188 491.710938 622.867188"/><path fill="#3CBCAA" d="M 332.625 666.261719 C 332.625 674.25 326.148438 680.726562 318.164062 680.726562 C 310.175781 680.726562 303.699219 674.25 303.699219 666.261719 C 303.699219 658.273438 310.175781 651.796875 318.164062 651.796875 C 326.148438 651.796875 332.625 658.273438 332.625 666.261719"/><path fill="#3CBCAA" d="M 506.171875 550.546875 C 506.171875 558.535156 499.695312 565.011719 491.710938 565.011719 C 483.722656 565.011719 477.246094 558.535156 477.246094 550.546875 C 477.246094 542.558594 483.722656 536.082031 491.710938 536.082031 C 499.695312 536.082031 506.171875 542.558594 506.171875 550.546875"/><path fill="#3CBCAA" d="M 621.871094 507.152344 L 592.945312 507.152344 C 584.957031 507.152344 578.484375 500.675781 578.484375 492.691406 C 578.484375 484.703125 584.957031 478.226562 592.945312 478.226562 L 621.871094 478.226562 C 629.855469 478.226562 636.332031 484.703125 636.332031 492.691406 C 636.332031 500.675781 629.855469 507.152344 621.871094 507.152344"/><path fill="#3CBCAA" d="M 737.566406 507.152344 L 679.71875 507.152344 C 671.730469 507.152344 665.257812 500.675781 665.257812 492.691406 C 665.257812 484.703125 671.730469 478.226562 679.71875 478.226562 L 737.566406 478.226562 C 745.554688 478.226562 752.03125 484.703125 752.03125 492.691406 C 752.03125 500.675781 745.554688 507.152344 737.566406 507.152344"/><path fill="#3CBCAA" d="M 679.71875 565.011719 L 564.019531 565.011719 C 556.035156 565.011719 549.558594 558.535156 549.558594 550.546875 C 549.558594 542.558594 556.035156 536.082031 564.019531 536.082031 L 679.71875 536.082031 C 687.707031 536.082031 694.179688 542.558594 694.179688 550.546875 C 694.179688 558.535156 687.707031 565.011719 679.71875 565.011719"/><path fill="#3CBCAA" d="M 737.566406 680.726562 L 621.871094 680.726562 C 613.882812 680.726562 607.40625 674.25 607.40625 666.261719 C 607.40625 658.273438 613.882812 651.796875 621.871094 651.796875 L 737.566406 651.796875 C 745.554688 651.796875 752.03125 658.273438 752.03125 666.261719 C 752.03125 674.25 745.554688 680.726562 737.566406 680.726562"/><path fill="#3CBCAA" d="M 737.566406 738.582031 L 564.019531 738.582031 C 556.035156 738.582031 549.558594 732.105469 549.558594 724.117188 C 549.558594 716.128906 556.035156 709.652344 564.019531 709.652344 L 737.566406 709.652344 C 745.554688 709.652344 752.03125 716.128906 752.03125 724.117188 C 752.03125 732.105469 745.554688 738.582031 737.566406 738.582031"/><path fill="#3CBCAA" d="M 737.566406 622.867188 L 564.019531 622.867188 C 556.035156 622.867188 549.558594 616.390625 549.558594 608.402344 C 549.558594 600.417969 556.035156 593.941406 564.019531 593.941406 L 737.566406 593.941406 C 745.554688 593.941406 752.03125 600.417969 752.03125 608.402344 C 752.03125 616.390625 745.554688 622.867188 737.566406 622.867188"/><path fill="#3CBCAA" d="M 578.484375 666.261719 C 578.484375 674.25 572.007812 680.726562 564.019531 680.726562 C 556.035156 680.726562 549.558594 674.25 549.558594 666.261719 C 549.558594 658.273438 556.035156 651.796875 564.019531 651.796875 C 572.007812 651.796875 578.484375 658.273438 578.484375 666.261719"/><path fill="#3CBCAA" d="M 752.03125 550.546875 C 752.03125 558.535156 745.554688 565.011719 737.566406 565.011719 C 729.582031 565.011719 723.105469 558.535156 723.105469 550.546875 C 723.105469 542.558594 729.582031 536.082031 737.566406 536.082031 C 745.554688 536.082031 752.03125 542.558594 752.03125 550.546875"/></svg>