<svg xmlns="http://www.w3.org/2000/svg" width="810" viewBox="0 0 810 810" height="810" version="1.0"><path fill="#FFF" d="M-81 -81H891V891H-81z"/><path fill="#FFF" d="M-81 -81H891V891H-81z"/><path fill="#FFF" d="M-81 -81H891V891H-81z"/><path fill="#76EFDA" d="M 5.625 828 L 804.71875 828 C 821.0625 828 834.316406 814.757812 834.316406 798.429688 L 834.316406 29.570312 C 834.316406 13.242188 821.0625 0 804.71875 0 L 5.625 0 C -10.71875 0 -23.972656 13.242188 -23.972656 29.570312 L -23.972656 798.429688 C -23.972656 814.757812 -10.71875 828 5.625 828"/><path fill="#3892D3" d="M 834.316406 29.570312 L 834.316406 118.285156 L -23.972656 118.285156 L -23.972656 29.570312 C -23.972656 13.234375 -10.726562 0 5.625 0 L 804.71875 0 C 821.070312 0 834.316406 13.234375 834.316406 29.570312"/><path fill="#76EFDA" d="M 168.402344 59.144531 C 168.402344 67.308594 161.777344 73.929688 153.605469 73.929688 C 145.433594 73.929688 138.808594 67.308594 138.808594 59.144531 C 138.808594 50.976562 145.433594 44.355469 153.605469 44.355469 C 161.777344 44.355469 168.402344 50.976562 168.402344 59.144531"/><path fill="#76EFDA" d="M 109.210938 59.144531 C 109.210938 67.308594 102.585938 73.929688 94.414062 73.929688 C 86.242188 73.929688 79.613281 67.308594 79.613281 59.144531 C 79.613281 50.976562 86.242188 44.355469 94.414062 44.355469 C 102.585938 44.355469 109.210938 50.976562 109.210938 59.144531"/><path fill="#76EFDA" d="M 50.019531 59.144531 C 50.019531 67.308594 43.394531 73.929688 35.21875 73.929688 C 27.046875 73.929688 20.421875 67.308594 20.421875 59.144531 C 20.421875 50.976562 27.046875 44.355469 35.21875 44.355469 C 43.394531 44.355469 50.019531 50.976562 50.019531 59.144531"/><path fill="#FFF" d="M 582.75 621 L 227.59375 621 L 227.59375 561.855469 L 582.75 561.855469 L 582.75 621"/><path fill="#FFF" d="M 582.75 739.285156 L 227.59375 739.285156 L 227.59375 680.144531 L 582.75 680.144531 L 582.75 739.285156"/><path fill="#3892D3" d="M 286.789062 739.285156 L 227.59375 739.285156 L 227.59375 680.144531 L 286.789062 680.144531 L 286.789062 739.285156"/><path fill="#3892D3" d="M 286.789062 621 L 227.59375 621 L 227.59375 561.855469 L 286.789062 561.855469 L 286.789062 621"/><path fill="#3892D3" d="M 553.152344 354.855469 C 553.152344 392.152344 539.316406 426.238281 516.488281 452.257812 C 489.394531 483.179688 449.566406 502.714844 405.171875 502.714844 C 360.777344 502.714844 320.949219 483.179688 293.855469 452.257812 C 271.027344 426.238281 257.191406 392.152344 257.191406 354.855469 C 257.191406 273.203125 323.449219 207 405.171875 207 C 486.894531 207 553.152344 273.203125 553.152344 354.855469"/><path fill="#FFF" d="M 516.488281 452.257812 C 489.394531 483.179688 449.566406 502.714844 405.171875 502.714844 C 360.777344 502.714844 320.949219 483.179688 293.855469 452.257812 C 310.371094 395.445312 353.972656 354.855469 405.171875 354.855469 C 456.371094 354.855469 499.972656 395.445312 516.488281 452.257812"/><path fill="#FFF" d="M 360.777344 310.5 C 360.777344 334.996094 380.65625 354.855469 405.171875 354.855469 C 429.6875 354.855469 449.566406 334.996094 449.566406 310.5 C 449.566406 286.003906 429.6875 266.144531 405.171875 266.144531 C 380.65625 266.144531 360.777344 286.003906 360.777344 310.5"/></svg>