<svg xmlns="http://www.w3.org/2000/svg" width="810" viewBox="0 0 810 810" height="810" version="1.0"><path fill="#FFF" d="M-81 -81H891V891H-81z"/><path fill="#FFF" d="M-81 -81H891V891H-81z"/><path fill="#FFF" d="M-81 -81H891V891H-81z"/><path fill="#DBDBDB" d="M 6.101562 819.28125 L 805.195312 819.28125 C 821.542969 819.28125 834.792969 806.039062 834.792969 789.707031 L 834.792969 20.851562 C 834.792969 4.519531 821.542969 -8.71875 805.195312 -8.71875 L 6.101562 -8.71875 C -10.242188 -8.71875 -23.492188 4.519531 -23.492188 20.851562 L -23.492188 789.707031 C -23.492188 806.039062 -10.242188 819.28125 6.101562 819.28125"/><path fill="#3CBCAA" d="M 834.792969 20.851562 L 834.792969 109.566406 L -23.492188 109.566406 L -23.492188 20.851562 C -23.492188 4.515625 -10.25 -8.71875 6.101562 -8.71875 L 805.195312 -8.71875 C 821.546875 -8.71875 834.792969 4.515625 834.792969 20.851562"/><path fill="#DBDBDB" d="M 168.882812 50.421875 C 168.882812 58.589844 162.253906 65.207031 154.082031 65.207031 C 145.910156 65.207031 139.285156 58.589844 139.285156 50.421875 C 139.285156 42.257812 145.910156 35.636719 154.082031 35.636719 C 162.253906 35.636719 168.882812 42.257812 168.882812 50.421875"/><path fill="#DBDBDB" d="M 109.6875 50.421875 C 109.6875 58.589844 103.0625 65.207031 94.890625 65.207031 C 86.71875 65.207031 80.09375 58.589844 80.09375 50.421875 C 80.09375 42.257812 86.71875 35.636719 94.890625 35.636719 C 103.0625 35.636719 109.6875 42.257812 109.6875 50.421875"/><path fill="#DBDBDB" d="M 50.496094 50.421875 C 50.496094 58.589844 43.871094 65.207031 35.699219 65.207031 C 27.527344 65.207031 20.902344 58.589844 20.902344 50.421875 C 20.902344 42.257812 27.527344 35.636719 35.699219 35.636719 C 43.871094 35.636719 50.496094 42.257812 50.496094 50.421875"/><path fill="#FFF" d="M 583.226562 612.28125 L 228.074219 612.28125 L 228.074219 553.136719 L 583.226562 553.136719 L 583.226562 612.28125"/><path fill="#FFF" d="M 583.226562 730.566406 L 228.074219 730.566406 L 228.074219 671.421875 L 583.226562 671.421875 L 583.226562 730.566406"/><path fill="#3CBCAA" d="M 287.265625 730.566406 L 228.074219 730.566406 L 228.074219 671.421875 L 287.265625 671.421875 L 287.265625 730.566406"/><path fill="#3CBCAA" d="M 287.265625 612.28125 L 228.074219 612.28125 L 228.074219 553.136719 L 287.265625 553.136719 L 287.265625 612.28125"/><path fill="#1E3048" d="M 553.628906 346.136719 C 553.628906 383.433594 539.792969 417.515625 516.96875 443.535156 C 489.871094 474.457031 450.042969 493.996094 405.648438 493.996094 C 361.253906 493.996094 321.429688 474.457031 294.332031 443.535156 C 271.507812 417.515625 257.667969 383.433594 257.667969 346.136719 C 257.667969 264.484375 323.929688 198.28125 405.648438 198.28125 C 487.371094 198.28125 553.628906 264.484375 553.628906 346.136719"/><path fill="#FFF" d="M 516.96875 443.535156 C 489.871094 474.457031 450.042969 493.996094 405.648438 493.996094 C 361.253906 493.996094 321.429688 474.457031 294.332031 443.535156 C 310.851562 386.726562 354.449219 346.136719 405.648438 346.136719 C 456.851562 346.136719 500.449219 386.726562 516.96875 443.535156"/><path fill="#FFF" d="M 361.253906 301.78125 C 361.253906 326.277344 381.132812 346.136719 405.648438 346.136719 C 430.167969 346.136719 450.042969 326.277344 450.042969 301.78125 C 450.042969 277.285156 430.167969 257.421875 405.648438 257.421875 C 381.132812 257.421875 361.253906 277.285156 361.253906 301.78125"/></svg>