<svg xmlns="http://www.w3.org/2000/svg" width="810" viewBox="0 0 810 810" height="810" version="1.0"><path fill="#FFF" d="M-81 -81H891V891H-81z"/><path fill="#FFF" d="M-81 -81H891V891H-81z"/><path fill="#FFF" d="M-81 -81H891V891H-81z"/><path fill="#D9D9D9" d="M 14.453125 810 L 795.417969 810 C 811.390625 810 824.339844 797.046875 824.339844 781.070312 L 824.339844 28.929688 C 824.339844 12.953125 811.390625 0 795.417969 0 L 14.453125 0 C -1.519531 0 -14.46875 12.953125 -14.46875 28.929688 L -14.46875 781.070312 C -14.46875 797.046875 -1.519531 810 14.453125 810"/><path fill="#3CBCAA" d="M 824.339844 28.929688 L 824.339844 115.714844 L -14.46875 115.714844 L -14.46875 28.929688 C -14.46875 12.945312 -1.527344 0 14.453125 0 L 795.417969 0 C 811.398438 0 824.339844 12.945312 824.339844 28.929688"/><path fill="#D9D9D9" d="M 173.539062 57.855469 C 173.539062 65.84375 167.0625 72.320312 159.078125 72.320312 C 151.089844 72.320312 144.613281 65.84375 144.613281 57.855469 C 144.613281 49.871094 151.089844 43.394531 159.078125 43.394531 C 167.0625 43.394531 173.539062 49.871094 173.539062 57.855469"/><path fill="#D9D9D9" d="M 115.691406 57.855469 C 115.691406 65.84375 109.214844 72.320312 101.226562 72.320312 C 93.242188 72.320312 86.765625 65.84375 86.765625 57.855469 C 86.765625 49.871094 93.242188 43.394531 101.226562 43.394531 C 109.214844 43.394531 115.691406 49.871094 115.691406 57.855469"/><path fill="#D9D9D9" d="M 57.839844 57.855469 C 57.839844 65.84375 51.367188 72.320312 43.378906 72.320312 C 35.390625 72.320312 28.917969 65.84375 28.917969 57.855469 C 28.917969 49.871094 35.390625 43.394531 43.378906 43.394531 C 51.367188 43.394531 57.839844 49.871094 57.839844 57.855469"/><path fill="#3CBCAA" d="M 216.925781 216.964844 L 72.304688 216.964844 C 64.316406 216.964844 57.839844 210.488281 57.839844 202.5 C 57.839844 194.511719 64.316406 188.035156 72.304688 188.035156 L 216.925781 188.035156 C 224.914062 188.035156 231.390625 194.511719 231.390625 202.5 C 231.390625 210.488281 224.914062 216.964844 216.925781 216.964844"/><path fill="#FFF" d="M 737.566406 260.355469 L 448.324219 260.355469 L 448.324219 202.5 L 737.566406 202.5 L 737.566406 260.355469"/><path fill="#FFF" d="M 737.566406 376.070312 L 448.324219 376.070312 L 448.324219 318.214844 L 737.566406 318.214844 L 737.566406 376.070312"/><path fill="#FFF" d="M 737.566406 607.5 L 448.324219 607.5 L 448.324219 433.929688 L 737.566406 433.929688 L 737.566406 607.5"/><path fill="#1E3048" d="M 621.871094 723.214844 L 564.019531 723.214844 C 548.046875 723.214844 535.097656 710.261719 535.097656 694.285156 C 535.097656 678.308594 548.046875 665.355469 564.019531 665.355469 L 621.871094 665.355469 C 637.84375 665.355469 650.792969 678.308594 650.792969 694.285156 C 650.792969 710.261719 637.84375 723.214844 621.871094 723.214844"/><path fill="#3CBCAA" d="M 159.078125 274.820312 L 130.152344 274.820312 C 122.167969 274.820312 115.691406 268.34375 115.691406 260.355469 C 115.691406 252.371094 122.167969 245.894531 130.152344 245.894531 L 159.078125 245.894531 C 167.0625 245.894531 173.539062 252.371094 173.539062 260.355469 C 173.539062 268.34375 167.0625 274.820312 159.078125 274.820312"/><path fill="#3CBCAA" d="M 361.550781 274.820312 L 216.925781 274.820312 C 208.941406 274.820312 202.464844 268.34375 202.464844 260.355469 C 202.464844 252.371094 208.941406 245.894531 216.925781 245.894531 L 361.550781 245.894531 C 369.535156 245.894531 376.011719 252.371094 376.011719 260.355469 C 376.011719 268.34375 369.535156 274.820312 361.550781 274.820312"/><path fill="#3CBCAA" d="M 216.925781 332.679688 L 72.304688 332.679688 C 64.316406 332.679688 57.839844 326.203125 57.839844 318.214844 C 57.839844 310.226562 64.316406 303.75 72.304688 303.75 L 216.925781 303.75 C 224.914062 303.75 231.390625 310.226562 231.390625 318.214844 C 231.390625 326.203125 224.914062 332.679688 216.925781 332.679688"/><path fill="#3CBCAA" d="M 361.550781 332.679688 L 274.777344 332.679688 C 266.789062 332.679688 260.3125 326.203125 260.3125 318.214844 C 260.3125 310.226562 266.789062 303.75 274.777344 303.75 L 361.550781 303.75 C 369.535156 303.75 376.011719 310.226562 376.011719 318.214844 C 376.011719 326.203125 369.535156 332.679688 361.550781 332.679688"/><path fill="#3CBCAA" d="M 303.699219 390.535156 L 130.152344 390.535156 C 122.167969 390.535156 115.691406 384.058594 115.691406 376.070312 C 115.691406 368.082031 122.167969 361.605469 130.152344 361.605469 L 303.699219 361.605469 C 311.6875 361.605469 318.164062 368.082031 318.164062 376.070312 C 318.164062 384.058594 311.6875 390.535156 303.699219 390.535156"/><path fill="#3CBCAA" d="M 86.765625 376.070312 C 86.765625 384.058594 80.289062 390.535156 72.304688 390.535156 C 64.316406 390.535156 57.839844 384.058594 57.839844 376.070312 C 57.839844 368.082031 64.316406 361.605469 72.304688 361.605469 C 80.289062 361.605469 86.765625 368.082031 86.765625 376.070312"/><path fill="#3CBCAA" d="M 303.699219 448.394531 L 130.152344 448.394531 C 122.167969 448.394531 115.691406 441.917969 115.691406 433.929688 C 115.691406 425.941406 122.167969 419.464844 130.152344 419.464844 L 303.699219 419.464844 C 311.6875 419.464844 318.164062 425.941406 318.164062 433.929688 C 318.164062 441.917969 311.6875 448.394531 303.699219 448.394531"/><path fill="#3CBCAA" d="M 86.765625 433.929688 C 86.765625 441.917969 80.289062 448.394531 72.304688 448.394531 C 64.316406 448.394531 57.839844 441.917969 57.839844 433.929688 C 57.839844 425.941406 64.316406 419.464844 72.304688 419.464844 C 80.289062 419.464844 86.765625 425.941406 86.765625 433.929688"/><path fill="#3CBCAA" d="M 303.699219 506.25 L 130.152344 506.25 C 122.167969 506.25 115.691406 499.773438 115.691406 491.785156 C 115.691406 483.796875 122.167969 477.320312 130.152344 477.320312 L 303.699219 477.320312 C 311.6875 477.320312 318.164062 483.796875 318.164062 491.785156 C 318.164062 499.773438 311.6875 506.25 303.699219 506.25"/><path fill="#3CBCAA" d="M 86.765625 491.785156 C 86.765625 499.773438 80.289062 506.25 72.304688 506.25 C 64.316406 506.25 57.839844 499.773438 57.839844 491.785156 C 57.839844 483.796875 64.316406 477.320312 72.304688 477.320312 C 80.289062 477.320312 86.765625 483.796875 86.765625 491.785156"/></svg>